<svg version="1.1" xmlns="http://www.w3.org/2000/svg" viewBox="-6.101445734908388 -8.757101430860441 13.35485605883331 17.243039083024932" fill="none" stroke="black" stroke-width="0.6%" vector-effect="non-scaling-stroke">
    <path d="M -2.76581 -5.75711 A 5 3.3004 350.45718 0 1 4.97778 -4.10962 A 5 3.3004 350.45718 0 1 -4.88384 -2.45177 A 5 3.3004 350.45718 0 1 -4.82574 -3.4491" />
    <path d="M -3.07014 5.60102 C -3.09 5.55 -3.11 5.5 -3.12515 5.44675 C -3.14 5.4 -3.16 5.34 -3.17921 5.29251 C -3.21 5.19 -3.25 5.09 -3.28446 4.98409 C -3.32 4.88 -3.35 4.78 -3.38588 4.67562 C -3.42 4.57 -3.45 4.47 -3.48346 4.367 C -3.52 4.26 -3.55 4.16 -3.5772 4.05813 C -3.61 3.96 -3.64 3.85 -3.66713 3.74895 C -3.7 3.65 -3.73 3.54 -3.75325 3.4394 C -3.78 3.34 -3.81 3.23 -3.83561 3.12944 C -3.86 3.03 -3.89 2.92 -3.91423 2.81904 C -3.94 2.72 -3.96 2.61 -3.98917 2.50819 C -4.01 2.4 -4.04 2.3 -4.06047 2.1969 C -4.08 2.09 -4.11 1.99 -4.1282 1.88519 C -4.15 1.78 -4.17 1.68 -4.19244 1.57309 C -4.21 1.47 -4.23 1.36 -4.25324 1.26067 C -4.27 1.16 -4.29 1.05 -4.3107 0.94799 C -4.33 0.84 -4.35 0.74 -4.3649 0.63515" />
    <path d="M -3.51944 5.38813 A 5 3.3004 170.45718 0 0 6.22314 3.29839" />
    <path d="M -2.76581 -5.75711 L 2.7018 -2.55415 L 2.13749 -2.274 L 1.53488 -2.04113 L 0.90428 -1.85952 L 0.25648 -1.73226 L -0.39745 -1.66156 L -1.04631 -1.6486 L -1.67901 -1.69361 L -2.28472 -1.79583 L -2.85309 -1.95351 L -3.37439 -2.16394 L -3.83971 -2.42352 L -4.24108 -2.72783 L -4.57164 -3.07165 L -4.82574 -3.4491" />
    <path d="M 4.85718 -4.54552 A 5 2.84617 180 0 0 4.89856 -4.91093 L 4.89856 -4.4303" />
    <path d="M 4.89856 -4.91093 A 5 2.84617 180 1 0 -5.10144 -4.91093 L -5.10144 3.31083 A 5 2.84617 180 0 0 -3.07014 5.60102" />
    <path d="M -5.10144 -4.91093 A 5 2.84617 180 0 0 2.7018 -2.55415" />
    <path d="M -4.88384 -2.45177 L -4.3649 0.63515" />
    <path d="M 4.97778 -4.10962 L 6.22314 3.29839" />
</svg>