<svg version="1.1" xmlns="http://www.w3.org/2000/svg" viewBox="-10.8194441220782 -11.306664874739324 20.58228014353126 20.594437749457146" fill="none" stroke="black" stroke-width="0.6%" vector-effect="non-scaling-stroke">
    <path d="M 5.15395 8.28777 L -0.00006 7.30577 L 3.60882 -1.9532 L -4.1637 -5.60109 L -5.65241 -1.78166 L -0.21164 0.77186" />
    <path d="M -7.77258 3.65788 L -0.00006 7.30577" />
    <path d="M -7.16408 2.09669 L -7.77258 3.65788" />
    <path d="M 8.76284 -0.9712 L 3.60882 -1.9532" />
    <path d="M 5.15395 8.28777 L 8.76284 -0.9712 L 6.43108 -2.06557 L 1.65195 -2.97614 L 2.40212 -4.48486 L -5.3704 -8.13275 L -9.81944 0.81504 L -2.04692 4.46292 L -0.21164 0.77186" />
    <path d="M -7.16408 2.09669 L -1.72331 4.65021 L -2.04692 4.46292" />
    <path d="M -1.72331 4.65021 L -0.21164 0.77186" />
    <path d="M -7.24522 2.30487 L -9.81944 0.81504" />
    <path d="M -0.96956 -4.2065 L 1.65195 -2.97614" />
    <path d="M -0.96956 -4.2065 L -1.19006 -4.2974 L -1.40622 -4.38816 L -1.61758 -4.47857 L -1.82364 -4.56844 L -2.02396 -4.65755 L -2.21808 -4.74571 L -2.40557 -4.83272 L -2.586 -4.91838 L -2.75898 -5.00251 L -2.92411 -5.08492 L -3.08103 -5.16542 L -3.22937 -5.24382 L -3.36882 -5.31997 L -3.49906 -5.39367" />
    <path d="M -3.78882 -5.52966 L -3.49906 -5.39367" />
    <path d="M -3.78882 -5.52966 L -4.1637 -5.60109" />
    <path d="M 6.8344 -1.87628 L 6.85116 -1.90997 L 4.62664 -3.19742 L 2.40212 -4.48486" />
    <path d="M -0.96956 -4.2065 L -0.88099 -4.21394 L -0.79185 -4.22371 L -0.70217 -4.23578 L -0.61198 -4.25017 L -0.52131 -4.26686 L -0.43019 -4.28586 L -0.33866 -4.30714 L -0.24676 -4.33071 L -0.1545 -4.35656 L -0.06192 -4.38468 L 0.03093 -4.41506 L 0.12404 -4.44768 L 0.21736 -4.48254 L 0.31087 -4.51962 A 5 2.89888 0 0 1 -4.04249 -6.56279 L -4.01427 -6.46858 L -3.98437 -6.37588 L -3.9528 -6.28474 L -3.91957 -6.19519 L -3.8847 -6.10726 L -3.84819 -6.02098 L -3.81007 -5.93638 L -3.77034 -5.85349 L -3.72902 -5.77234 L -3.68612 -5.69296 L -3.64166 -5.61538 L -3.59565 -5.53962 L -3.54811 -5.4657 L -3.49906 -5.39367" />
    <path d="M 0.31087 -4.51962 L -4.04249 -6.56279" />
    <path d="M -4.24793 -7.60594 A 5 2.89888 0 0 1 5.74038 -7.40779 L 5.74038 -2.55284" />
    <path d="M 5.74038 -7.40779 A 5 2.89888 0 0 1 2.11343 -4.62035" />
</svg>