<svg version="1.1" xmlns="http://www.w3.org/2000/svg" viewBox="-9.018233792169886 -13.48444392939395 18.609679226628973 22.956681985942545" fill="none" stroke="black" stroke-width="0.6%" vector-effect="non-scaling-stroke">
    <path d="M 2.1807 -3.20005 L 2.15776 -3.24152 L 2.1348 -3.28276 L 2.11184 -3.32376 L 2.08886 -3.36452 L 2.06586 -3.40504 L 2.04286 -3.44533 L 2.01985 -3.48537 L 1.99683 -3.52518 L 1.97379 -3.56474 L 1.95076 -3.60406 L 1.92771 -3.64313 L 1.90466 -3.68195 L 1.8816 -3.72053 L 1.85854 -3.75885" />
    <path d="M -1.69952 -11.02325 A 4 2.99261 0 0 1 5.73706 -9.49184 A 4 2.99261 0 1 1 -2.26294 -9.49184 A 4 2.99261 0 0 1 -1.69952 -11.02325 Z" />
    <path d="M 4.57333 -4.06399 A 4 2.99261 180 0 0 5.73706 -6.1742" />
    <path d="M 2.1807 -3.20005 L 2.33057 -3.24235 L 2.4796 -3.29018 L 2.62757 -3.34347 L 2.77426 -3.40214 L 2.91947 -3.46612 L 3.063 -3.53531 L 3.20463 -3.60962 L 3.34417 -3.68893 L 3.48141 -3.77313 L 3.61616 -3.86211 L 3.74823 -3.95574 L 3.87742 -4.05387 L 4.00356 -4.15638 L 4.12647 -4.26312" />
    <path d="M 2.35245 -1.54591 L 2.37799 -1.66654 L 2.39773 -1.78747 L 2.41165 -1.90854 L 2.41973 -2.02957 L 2.42195 -2.15038 L 2.41831 -2.27082 L 2.40882 -2.39069 L 2.39349 -2.50985 L 2.37234 -2.6281 L 2.34541 -2.74529 L 2.31273 -2.86124 L 2.27435 -2.97579 L 2.23031 -3.08879 L 2.1807 -3.20005 L 4.40119 -2.21055 L 5.24813 -3.76328 L 4.12647 -4.26312" />
    <path d="M 2.35245 -1.54591 L 2.36061 -1.50463 L 2.36864 -1.46332 L 2.37655 -1.42196 L 2.38433 -1.38056 L 2.39199 -1.33913 L 2.39952 -1.29766 L 2.40693 -1.25617 L 2.41421 -1.21464 L 2.42137 -1.17308 L 2.4284 -1.13149 L 2.4353 -1.08988 L 2.44208 -1.04824 L 2.44873 -1.00658 L 2.45526 -0.9649 L 3.47411 -0.51087 L 3.47411 -1.04608 L 4.40119 -2.21055" />
    <path d="M -4.80929 0.67537 A 4 3.66135 148.8769 0 0 2.45526 -0.9649" />
    <path d="M -5.86233 -4.64719 A 4 3.66135 328.8769 0 1 0.99848 -5.18328 A 4 3.66135 328.8769 0 1 -5.84999 -1.04826 A 4 3.66135 328.8769 0 1 -5.86233 -4.64719 Z" />
    <path d="M -3.34332 -7.59182 L -3.97262 -6.43808" />
    <path d="M -2.26294 -7.11039 L -3.34332 -7.59182" />
    <path d="M 5.41601 -3.48523 L 8.59144 -7.47378 L 5.73706 -8.74576" />
    <path d="M -2.26294 -8.45991 L -3.056 -7.46379" />
    <path d="M 5.41601 -3.48523 L 5.24813 -3.76328" />
    <path d="M -6.28329 -2.20179 L -8.01823 0.97899 L 0.57321 4.80753 L 3.47411 -0.51087" />
    <path d="M 2.35245 -1.54591 L 3.47411 -1.04608" />
    <path d="M -5.93683 4.42623 L -8.01823 0.97899" />
    <path d="M 5.48892 3.05847 L 6.03278 2.37535 L 8.59144 -0.8385 L 8.59144 -7.47378" />
    <path d="M 4.99208 3.96937 L 5.48892 3.05847" />
    <path d="M 2.65462 8.25477 L 4.99208 3.96937 L 3.95137 2.24574" />
    <path d="M 2.65462 8.25477 L 0.57321 4.80753" />
    <path d="M -5.93683 4.42623 L -1.6411 6.3405 L 2.65462 8.25477" />
    <path d="M -2.68181 4.61688 L -1.6411 6.3405" />
    <path d="M -2.54324 6.36311 A 5 4.57669 148.8769 0 0 6.03278 5.69299 A 5 3.74076 180 0 0 6.73706 3.77872" />
    <path d="M 6.03278 5.69299 L 5.99537 5.51374 L 5.95707 5.33412 L 5.91789 5.15419 L 5.87783 4.97396 L 5.83692 4.79349 L 5.79514 4.6128 L 5.75252 4.43194 L 5.70907 4.25094 L 5.66478 4.06985 L 5.61967 3.88869 L 5.57376 3.70751 L 5.52704 3.52635 L 5.47953 3.34524 L 5.43124 3.16422" />
    <path d="M -2.26294 -9.49184 L -2.26294 -6.86807" />
    <path d="M 5.73706 -9.49184 L 5.73706 -6.1742" />
    <path d="M -5.84999 -1.04826 L -4.80929 0.67537" />
    <path d="M 0.99848 -5.18328 L 1.85854 -3.75885" />
    <path d="M -2.89399 5.78218 L -2.54324 6.36311" />
    <path d="M 6.73706 1.49073 L 6.73706 3.77872" />
</svg>