<svg version="1.1" xmlns="http://www.w3.org/2000/svg" viewBox="-9.264799196035533 -9.753850767841113 19.843723645108998 20.05399319178052" fill="none" stroke="black" stroke-width="0.6%" vector-effect="non-scaling-stroke">
    <path d="M -3.63973 6.11665 L -3.63973 -3.25471 L 0.45627 -0.07121 L 9.57892 -1.50058 L 5.48293 -4.68407 L -3.63973 -3.25471" />
    <path d="M 0.45627 9.30014 L 0.45627 -0.07121" />
    <path d="M -3.63973 6.11665 L 0.45627 9.30014 L 9.57892 7.87078 L 9.57892 -1.50058" />
    <path d="M -5.0176 -8.58546 A 5.5 1.91931 360 0 1 2.7352 -6.83454 L 2.7352 -4.25355" />
    <path d="M 2.7352 -6.83454 A 5.5 1.91931 360 0 1 -8.2648 -6.83454 L -8.2648 2.53682 A 5.5 1.91931 180 0 0 -3.63973 4.43169" />
    <path d="M -8.2648 -6.83454 A 5.5 1.91931 360 0 1 -5.0176 -8.58546" />
</svg>