<svg version="1.1" xmlns="http://www.w3.org/2000/svg" viewBox="-7.411382479706898 -8.041376220854122 16.085648642773684 16.73990290070549" fill="none" stroke="black" stroke-width="0.6%" vector-effect="non-scaling-stroke">
    <path d="M -6.41138 3.8177 L -3.37206 5.35468 L -3.50082 5.14142 L -3.62848 4.90669 L -3.75489 4.65077 L -3.8799 4.37395 L -4.00336 4.07656 L -4.12513 3.75897 L -4.24506 3.42154 L -4.363 3.06467 L -4.47883 2.6888 L -4.5924 2.29435 L -4.70357 1.88181 L -4.81222 1.45166 L -4.91821 1.00441 L -5.02143 0.5406" />
    <path d="M -6.41138 -0.1623 L -5.02143 0.5406" />
    <path d="M -6.41138 3.8177 L -6.41138 -0.1623" />
    <path d="M 3.78715 1.88962 L 3.97345 1.74645 L 4.1458 1.59705 L 4.30359 1.44192 L 4.44627 1.28162 L 4.57335 1.1167 L 4.6844 0.94772 L 4.77901 0.77528 L 4.85687 0.59997 L 4.91771 0.42241 L 4.96131 0.2432 L 4.98753 0.06298 L 4.99626 -0.11765 L 4.98749 -0.29803 L 4.96124 -0.47757" />
    <path d="M -4.53867 -5.32515 A 5 3.59538 348.94102 0 1 4.20558 -4.34384 A 5 3.59538 348.94102 0 1 -5.60872 -2.42565 A 5 3.59538 348.94102 0 1 -4.53867 -5.32515 Z" />
    <path d="M -5.06115 0.37599 L -5.0588 0.38779 L -5.05638 0.39959 L -5.05388 0.41138 L -5.05131 0.42317 L -5.04866 0.43495 L -5.04594 0.44672 L -5.04314 0.45848 L -5.04026 0.47024 L -5.03731 0.48198 L -5.03428 0.49372 L -5.03118 0.50546 L -5.02801 0.51718 L -5.02475 0.52889 L -5.02143 0.5406" />
    <path d="M 0.06333 7.09195 A 5 3.59538 348.94102 0 1 -4.07948 4.99694" />
    <path d="M -0.12713 3.01563 L -0.23035 3.37505 L -0.33634 3.7151 L -0.44499 4.03536 L -0.55616 4.33546 L -0.66973 4.61505 L -0.78556 4.87378 L -0.9035 5.11135 L -1.02343 5.32749 L -1.1452 5.52193 L -1.26866 5.69444 L -1.39367 5.84483 L -1.52008 5.9729 L -1.64774 6.07852 L -1.7765 6.16155 L 1.26282 7.69853 L 1.26282 3.71852 L 3.78715 1.88962 L 7.67427 -0.92664 L 4.56628 -2.49834" />
    <path d="M -0.12713 3.01563 L 0.18968 3.00834 L 0.50555 2.989 L 0.81923 2.95766 L 1.12948 2.91447 L 1.43508 2.85959 L 1.73482 2.79323 L 2.02753 2.71566 L 2.31205 2.62718 L 2.58726 2.52814 L 2.85207 2.41894 L 3.10544 2.3 L 3.34636 2.17179 L 3.5739 2.03482 L 3.78715 1.88962" />
    <path d="M -5.32079 -0.95245 L -6.41138 -0.1623" />
    <path d="M 1.26282 7.69853 L 4.46854 5.37594 L 7.67427 3.05336 L 7.67427 -0.92664" />
    <path d="M -0.12713 3.01563 L 1.26282 3.71852" />
    <path d="M -5.60872 -2.42565 L -5.06115 0.37599" />
    <path d="M 4.20558 -4.34384 L 4.96124 -0.47757" />
</svg>