<svg version="1.1" xmlns="http://www.w3.org/2000/svg" viewBox="-9.181947452736885 -12.906652853807403 18.710291896179818 22.4682981088344" fill="none" stroke="black" stroke-width="0.6%" vector-effect="non-scaling-stroke">
    <path d="M -1.84674 -6.38242 L -1.8467 -6.36607 L -1.84658 -6.34973 L -1.84639 -6.3334 L -1.84613 -6.31709 L -1.84579 -6.30079 L -1.84537 -6.2845 L -1.84488 -6.26823 L -1.84431 -6.25197 L -1.84366 -6.23573 L -1.84294 -6.2195 L -1.84215 -6.20328 L -1.84128 -6.18709 L -1.84033 -6.1709 L -1.83931 -6.15474" />
    <path d="M -1.33166 -10.64441 A 3.5 2.64167 0 0 1 5.15326 -9.26498 A 3.5 2.64167 0 0 1 -1.84674 -9.26498 A 3.5 2.64167 0 0 1 -1.33166 -10.64441 Z" />
    <path d="M 4.00154 -4.02616 A 3.5 2.64167 180 0 0 5.15326 -5.98499" />
    <path d="M 1.24513 -3.36446 L 1.41558 -3.3746 L 1.5866 -3.39321 L 1.75778 -3.42024 L 1.92871 -3.45564 L 2.09898 -3.49932 L 2.26818 -3.55117 L 2.43591 -3.61107 L 2.60177 -3.67888 L 2.76536 -3.75442 L 2.92629 -3.83754 L 3.08418 -3.92801 L 3.23864 -4.02564 L 3.38931 -4.13018 L 3.53583 -4.24138" />
    <path d="M 1.72559 -1.52654 L 1.74286 -1.64352 L 1.75399 -1.76057 L 1.75897 -1.87749 L 1.75778 -1.99408 L 1.75042 -2.11015 L 1.73692 -2.22549 L 1.71728 -2.3399 L 1.69156 -2.45319 L 1.65978 -2.56516 L 1.62201 -2.67563 L 1.5783 -2.7844 L 1.52875 -2.89128 L 1.47342 -2.9961 L 1.41241 -3.09867" />
    <path d="M 1.72559 -1.52654 L 1.73504 -1.48517 L 1.74435 -1.44373 L 1.75351 -1.40223 L 1.76253 -1.36068 L 1.7714 -1.31906 L 1.78013 -1.27739 L 1.78872 -1.23568 L 1.79716 -1.19391 L 1.80545 -1.15209 L 1.8136 -1.11023 L 1.8216 -1.06832 L 1.82945 -1.02637 L 1.83716 -0.98439 L 1.84472 -0.94236 L 3.30653 -0.26681 L 3.30653 -0.79594 L 4.25254 -1.96208 L 5.11676 -3.51078 L 3.53583 -4.24138" />
    <path d="M -4.49477 0.65716 A 3.5 3.20972 147.81545 0 0 1.84472 -0.94236" />
    <path d="M -5.57946 -4.2739 A 3.5 3.20972 327.81545 0 1 0.36764 -4.75874 A 3.5 3.20972 327.81545 0 1 -5.55672 -1.0302 A 3.5 3.20972 327.81545 0 1 -5.57946 -4.2739 Z" />
    <path d="M -3.41158 -7.45201 L -4.2758 -5.90331 L -4.8536 -5.19107" />
    <path d="M -1.84674 -6.72884 L -3.41158 -7.45201" />
    <path d="M -4.2758 -5.90331 L -4.00786 -5.77948" />
    <path d="M 5.28808 -3.23857 L 8.52834 -7.23282 L 5.15326 -8.79255" />
    <path d="M -1.84674 -8.8976 L -3.12637 -7.32021" />
    <path d="M 5.28808 -3.23857 L 5.11676 -3.51078" />
    <path d="M 1.25628 -3.34675 L 4.25254 -1.96208" />
    <path d="M -6.01083 -2.79412 L -8.18195 1.09655 L 0.3464 5.03779 L 3.30653 -0.26681" />
    <path d="M 1.72559 -1.52654 L 3.30653 -0.79594" />
    <path d="M -6.05804 4.47127 L -8.18195 1.09655" />
    <path d="M 5.36247 3.2297 L 5.91744 2.5456 L 8.52834 -0.67284 L 8.52834 -7.23282" />
    <path d="M 4.85548 4.13822 L 5.36247 3.2297" />
    <path d="M 2.4703 8.41251 L 4.85548 4.13822 L 3.79353 2.45086" />
    <path d="M 2.4703 8.41251 L 0.3464 5.03779" />
    <path d="M -6.05804 4.47127 L -1.79387 6.44189 L 2.4703 8.41251" />
    <path d="M -2.85582 4.75453 L -1.79387 6.44189" />
    <path d="M -2.57842 6.51821 A 5 4.58531 147.81545 0 0 5.91744 5.82558 A 5 3.77382 180 0 0 6.65326 3.85497" />
    <path d="M 5.91744 5.82558 L 5.87926 5.64889 L 5.8402 5.47182 L 5.80027 5.29441 L 5.75947 5.1167 L 5.71781 4.93873 L 5.6753 4.76053 L 5.63196 4.58214 L 5.58778 4.4036 L 5.54278 4.22495 L 5.49697 4.04621 L 5.45036 3.86744 L 5.40295 3.68867 L 5.35476 3.50993 L 5.30579 3.33126" />
    <path d="M -1.84674 -9.26498 L -1.84674 -6.38242" />
    <path d="M 5.15326 -9.26498 L 5.15326 -5.98499" />
    <path d="M -5.55672 -1.0302 L -4.49477 0.65716" />
    <path d="M 0.36764 -4.75874 L 1.41241 -3.09867" />
    <path d="M -2.96792 5.89932 L -2.57842 6.51821" />
    <path d="M 6.65326 1.63855 L 6.65326 3.85497" />
</svg>