<svg version="1.1" xmlns="http://www.w3.org/2000/svg" viewBox="-9.597053160606787 -14.090209091315558 19.194106321213575 22.32116123644745" fill="none" stroke="black" stroke-width="0.6%" vector-effect="non-scaling-stroke">
    <path d="M 6.04292 4.27273 A 5 4.53621 322.60955 0 1 -2.01421 5.81205" />
    <path d="M 6.04292 4.27273 L 5.9966 4.08287 L 5.94892 3.89251 L 5.89989 3.70172 L 5.84954 3.51054 L 5.79788 3.31905 L 5.74493 3.12731 L 5.69069 2.93537 L 5.6352 2.7433 L 5.57846 2.55115 L 5.5205 2.359 L 5.46134 2.16689 L 5.40099 1.9749 L 5.33947 1.78308 L 5.2768 1.5915" />
    <path d="M 1.22443 6.43305 C 1.2 6.44 1.18 6.44 1.15752 6.45008 C 1.14 6.46 1.11 6.46 1.08947 6.46572 C 1.07 6.47 1.04 6.48 1.02034 6.47993 C 1 6.48 0.97 6.49 0.95019 6.49266 C 0.93 6.5 0.9 6.5 0.87905 6.50388 C 0.86 6.51 0.83 6.51 0.807 6.51355 C 0.78 6.52 0.76 6.52 0.73409 6.52162 C 0.71 6.52 0.69 6.53 0.66037 6.52807 C 0.64 6.53 0.61 6.53 0.58591 6.53287 C 0.56 6.53 0.54 6.54 0.51078 6.53598 C 0.49 6.54 0.46 6.54 0.43503 6.53738 C 0.41 6.54 0.38 6.54 0.35874 6.53705 C 0.33 6.54 0.31 6.54 0.28197 6.53497 C 0.26 6.53 0.23 6.53 0.20479 6.53112 C 0.18 6.53 0.15 6.53 0.12728 6.5255 C 0.1 6.52 0.08 6.52 0.04949 6.51808 C 0.01 6.51 -0.03 6.51 -0.0754 6.50248 C -0.12 6.5 -0.16 6.49 -0.20066 6.48226 C -0.24 6.47 -0.28 6.47 -0.32607 6.45739 C -0.37 6.45 -0.41 6.44 -0.45138 6.4279 C -0.49 6.42 -0.53 6.41 -0.57639 6.3938 C -0.62 6.38 -0.66 6.37 -0.70088 6.35511 C -0.74 6.34 -0.78 6.33 -0.82464 6.31189 C -0.87 6.3 -0.91 6.28 -0.94745 6.2642 C -0.96 6.26 -0.98 6.25 -0.99664 6.24373" />
    <path d="M 6.04292 4.27273 A 5 3.43428 180 0 0 6.7445 2.51841" />
    <path d="M 5.35855 1.42985 L 6.04292 0.63876 L 8.59705 -2.31364 L 8.59705 -9.58157 L 0.00021 -13.09021 L -3.9453 -8.52947" />
    <path d="M -4.17317 -8.62247 L -4.60705 -7.76453 L -5.10805 -7.18541 L 3.4888 -3.67677 L 3.98979 -4.25589 L 4.42367 -5.11383 L -4.17317 -8.62247 Z" />
    <path d="M -6.04292 3.46702 L -8.59705 0.1252 L -0.00021 3.63384 L 3.4888 -3.26523 L 3.4888 -3.67677" />
    <path d="M -5.10805 -6.77387 L -8.59705 0.1252" />
    <path d="M -5.10805 -6.77387 L -5.10805 -7.18541" />
    <path d="M -6.04292 3.46702 L -5.11478 3.84582" />
    <path d="M 0.08691 5.0121 A 4.5 4.17832 292.98797 0 1 -3.43101 5.211 L -0.99664 6.24373" />
    <path d="M -3.43101 5.211 A 4.5 4.17832 292.98797 0 1 -5.70126 2.64977 L -2.80718 3.83093 L 0.08691 5.0121 L 0.11916 5.10468 L 0.14836 5.19444 L 0.17448 5.28134 L 0.19752 5.36535 L 0.21747 5.44641 L 0.23431 5.5245 L 0.24803 5.59958 L 0.25864 5.67162 L 0.26613 5.74057 L 0.27049 5.80641 L 0.27171 5.86911 L 0.26981 5.92863 L 0.26478 5.98496 L 0.25663 6.03806 L 2.55392 6.97565 L -0.00021 3.63384" />
    <path d="M 2.55392 6.97565 L 4.76586 2.60182 L 3.4888 0.93091" />
    <path d="M 4.76586 2.60182 L 5.35855 1.42985" />
    <path d="M 4.5683 -4.9246 L 8.59705 -9.58157" />
    <path d="M 4.5683 -4.9246 L 4.42367 -5.11383" />
    <path d="M -4.60705 -7.76453 L 3.98979 -4.25589" />
    <path d="M -3.02157 3.55043 L -2.80718 3.83093" />
    <path d="M -5.10805 -6.77387 L 3.4888 -3.26523" />
    <path d="M 6.7445 -0.17222 L 6.7445 2.51841" />
</svg>