<svg version="1.1" xmlns="http://www.w3.org/2000/svg" viewBox="-9.59695323845831 -10.542371664235693 17.574712114595044 19.02796822725116" fill="none" stroke="black" stroke-width="0.6%" vector-effect="non-scaling-stroke">
    <path d="M -2.28163 5.76085 A 5 4.51246 143.63082 0 0 6.04292 4.52409 A 5 3.38321 180 0 0 6.74444 2.79592" />
    <path d="M 6.04292 4.52409 L 5.99653 4.33003 L 5.94879 4.13547 L 5.8997 3.94049 L 5.84928 3.74514 L 5.79754 3.54949 L 5.74451 3.35359 L 5.69019 3.15752 L 5.63462 2.96133 L 5.5778 2.76509 L 5.51975 2.56885 L 5.46049 2.37269 L 5.40004 2.17667 L 5.33843 1.98084 L 5.27566 1.78528" />
    <path d="M 6.04292 0.84253 L 6.04292 0.27299 L 6.97776 -1.56961 L 6.04292 -2.83903 L 4.42372 -5.03772 L -4.17323 -8.49406 L -4.60709 -7.63891 L -5.10807 -7.06839 L 3.48888 -3.61205 L 3.98986 -4.18257 L 4.42372 -5.03772" />
    <path d="M 4.74444 -7.27377 A 5 3.38321 360 0 1 6.74444 -4.5672 A 5 3.38321 360 0 1 6.04292 -2.83903" />
    <path d="M -6.04292 3.69334 L -8.59695 0.22522 L 0 3.68156 L 3.48888 -3.19512 L 3.48888 -3.61205" />
    <path d="M -5.10807 -6.65146 L -8.59695 0.22522" />
    <path d="M -5.10807 -6.65146 L -5.10807 -7.06839" />
    <path d="M 5.35856 1.62187 L 6.04292 0.84253" />
    <path d="M 4.7659 2.79003 L 5.35856 1.62187" />
    <path d="M 2.55404 7.14967 L 4.7659 2.79003 L 3.48888 1.05598" />
    <path d="M 2.55404 7.14967 L 0 3.68156" />
    <path d="M -1.74444 5.42151 L 2.55404 7.14967" />
    <path d="M -6.04292 3.69334 L -1.74444 5.42151" />
    <path d="M -3.02146 3.68745 L -1.74444 5.42151" />
    <path d="M -5.10807 -6.65146 L 3.48888 -3.19512" />
    <path d="M -4.60709 -7.63891 L 3.98986 -4.18257" />
    <path d="M -1.24138 -7.31534 A 3 2.02993 360 0 1 -1.25556 -7.51244 L -1.25556 -7.32104" />
    <path d="M -1.25556 -7.51244 A 3 2.02993 360 0 1 4.74444 -7.51244 L 4.74444 -4.60222" />
    <path d="M 4.74444 -7.51244 A 3 2.02993 360 0 1 2.91627 -5.64378" />
    <path d="M 6.74444 -4.5672 L 6.74444 -1.88643" />
    <path d="M 6.74444 -1.10973 L 6.74444 2.79592" />
    <path d="M -2.86259 4.97196 L -2.28163 5.76085" />
</svg>