<svg version="1.1" xmlns="http://www.w3.org/2000/svg" viewBox="-8.692441503323149 -9.781308830442278 18.92339988188675 20.11493676575152" fill="none" stroke="black" stroke-width="0.6%" vector-effect="non-scaling-stroke">
    <path d="M -4.61561 -8.64322 A 5 1.79497 0 0 1 2.30756 -6.98634 A 5 1.79497 0 0 1 -7.69244 -6.98634 A 5 1.79497 0 0 1 -4.61561 -8.64322 Z" />
    <path d="M -7.69244 2.34706 A 5 1.79497 180 0 0 -3.84608 4.0936" />
    <path d="M -3.84608 6.01986 L -3.84608 -3.31354 L 0.00027 0.00023 L 9.23096 -1.38059 L 5.38461 -4.69435 L -3.84608 -3.31354" />
    <path d="M 0.00027 9.33363 L 0.00027 0.00023" />
    <path d="M -3.84608 6.01986 L 0.00027 9.33363 L 9.23096 7.95281 L 9.23096 -1.38059" />
    <path d="M -7.69244 -6.98634 L -7.69244 2.34706" />
    <path d="M 2.30756 -6.98634 L 2.30756 -4.23406" />
</svg>