<svg version="1.1" xmlns="http://www.w3.org/2000/svg" viewBox="-9.597031000470967 -12.486995547700172 19.19406200094194 22.170944290545208" fill="none" stroke="black" stroke-width="0.6%" vector-effect="non-scaling-stroke">
    <path d="M 6.04292 5.45557 A 5 3.77202 180 0 0 6.74449 3.52874" />
    <path d="M 6.04292 5.45557 L 5.99707 5.29596 L 5.94989 5.13579 L 5.90139 4.97513 L 5.85158 4.81401 L 5.8005 4.65248 L 5.74814 4.49061 L 5.69454 4.32843 L 5.63969 4.16601 L 5.58363 4.00338 L 5.52636 3.84061 L 5.46792 3.67774 L 5.4083 3.51482 L 5.34754 3.35191 L 5.28565 3.18905" />
    <path d="M -1.71078 7.14276 A 5 4.67743 133.71358 0 0 1.83139 8.36005" />
    <path d="M 2.80554 8.17787 A 5 4.67743 133.71358 0 0 6.04292 5.45557" />
    <path d="M 6.04292 2.17352 L 8.59703 -1.06924 L 8.59703 -7.63333 L 3.08787 -10.10289" />
    <path d="M 5.35855 3.04242 L 6.04292 2.17352" />
    <path d="M 0.00016 -11.48699 L -3.98581 -6.42631" />
    <path d="M -4.17319 -6.5103 L -4.60706 -5.63755 L -5.10805 -5.00148 L 3.48881 -1.14782 L 3.98981 -1.78389 L 4.42368 -2.65664 L -4.17319 -6.5103 Z" />
    <path d="M -5.10805 -4.62979 L -5.10805 -5.00148" />
    <path d="M -5.10805 -4.62979 L -8.59703 2.38837 L -0.00016 6.24203 L 3.48881 -0.77613 L 3.48881 -1.14782" />
    <path d="M -6.04292 4.83029 L -8.59703 2.38837" />
    <path d="M 1.68829 -10.73027 L 0.00016 -11.48699" />
    <path d="M 4.76587 4.23461 L 5.35855 3.04242" />
    <path d="M 2.55395 8.68395 L 4.76587 4.23461 L 3.48881 3.01365" />
    <path d="M 2.55395 8.68395 L -0.00016 6.24203" />
    <path d="M 4.56831 -2.51837 L 4.42368 -2.65664" />
    <path d="M 4.56831 -2.51837 L 8.59703 -7.63333" />
    <path d="M -6.04292 4.83029 L -1.74449 6.75712 L 2.55395 8.68395" />
    <path d="M 0.24449 -6.31741 A 1.5 1.13161 180 0 0 3.24449 -6.31741" />
    <path d="M -3.02154 5.53616 L -1.74449 6.75712" />
    <path d="M -4.60706 -5.63755 L 3.98981 -1.78389" />
    <path d="M -5.10805 -4.62979 L 3.48881 -0.77613" />
    <path d="M -3.12325 0.95007 A 1.5 1.40323 133.71358 0 0 -1.05009 -1.21834" />
    <path d="M 0.45496 -10.1775 A 1.5 1.13161 360 0 1 3.24449 -9.59945 L 3.24449 -6.31741" />
    <path d="M 3.24449 -9.59945 A 1.5 1.13161 360 0 1 0.24449 -9.59945 L 0.24449 -6.31741" />
    <path d="M 0.24449 -9.59945 A 1.5 1.13161 360 0 1 0.45496 -10.1775" />
    <path d="M -4.65326 -1.93314 A 1.5 1.40323 313.71358 0 1 -2.32715 -2.4393 L -1.05009 -1.21834" />
    <path d="M -2.32715 -2.4393 A 1.5 1.40323 313.71358 0 1 -4.40031 -0.27089 L -3.12325 0.95007" />
    <path d="M -4.40031 -0.27089 A 1.5 1.40323 313.71358 0 1 -4.65326 -1.93314" />
    <path d="M 6.74449 1.2828 L 6.74449 3.52874" />
    <path d="M -2.44044 6.44515 L -1.71078 7.14276" />
</svg>