<svg version="1.1" xmlns="http://www.w3.org/2000/svg" viewBox="-7.852488414339426 -16.314099917148837 17.986249205859963 27.239420576307413" fill="none" stroke="black" stroke-width="0.6%" vector-effect="non-scaling-stroke">
    <path d="M 7.09791 5.77144 A 5 4.14825 180 0 0 7.53115 4.08239" />
    <path d="M 0.24603 8.52967 A 5 4.86726 117.19526 0 0 1.88016 9.02408" />
    <path d="M 4.89913 8.38083 A 5 4.86726 117.19526 0 0 7.09791 5.77144 L 7.06266 5.65857 L 7.0261 5.54524 L 6.98825 5.43149 L 6.94911 5.31735 L 6.90869 5.20286 L 6.86701 5.08804 L 6.82408 4.97294 L 6.77991 4.85757 L 6.73451 4.74198 L 6.6879 4.6262 L 6.64009 4.51027 L 6.59109 4.39421 L 6.54092 4.27806 L 6.48959 4.16185" />
    <path d="M 7.09791 2.98002 L 9.13376 -0.8088 L 9.13376 -6.39164 L 3.03115 -8.64873" />
    <path d="M 6.55241 3.99522 L 7.09791 2.98002" />
    <path d="M -4.81664 6.54723 L -0.24988 8.23628 L 4.31689 9.92532 L 2.28104 8.87925 L 5.06206 1.50211 L 5.06206 1.18598 L 5.4614 0.4428 L 5.80723 -0.47459 L -3.32629 -3.85267 L -3.67213 -2.93529 L 5.4614 0.4428" />
    <path d="M 4.31689 9.92532 L 6.07998 5.2484 L 6.55241 3.99522" />
    <path d="M 0.00024 -9.76973 L -3.20357 -3.80729" />
    <path d="M -3.67213 -2.93529 L -4.07146 -2.1921 L 5.06206 1.18598" />
    <path d="M -4.07146 -1.87598 L -4.07146 -2.1921" />
    <path d="M -4.07146 -1.87598 L -6.85249 5.50116 L 2.28104 8.87925" />
    <path d="M -4.81664 6.54723 L -6.85249 5.50116" />
    <path d="M 2.03115 -9.01858 L 0.00024 -9.76973" />
    <path d="M 5.92251 -0.41536 L 5.80723 -0.47459" />
    <path d="M 5.92251 -0.41536 L 9.13376 -6.39164" />
    <path d="M 6.07998 5.2484 L 5.06206 4.72536" />
    <path d="M -1.2678 7.71324 L -0.24988 8.23628" />
    <path d="M 1.03115 -4.29187 A 1.5 1.24447 180 1 0 4.03115 -4.29187" />
    <path d="M -4.07146 -1.87598 L 5.06206 1.50211" />
    <path d="M -1.20816 3.84747 A 1.5 1.46018 117.19526 0 0 0.16291 1.17911" />
    <path d="M 1.16112 -7.59001 A 1.5 1.24447 360 0 1 2.03115 -8.25659" />
    <path d="M 3.03115 -8.25659 A 1.5 1.24447 360 0 1 4.03115 -7.08329 L 4.03115 -4.29187" />
    <path d="M 4.03115 -7.08329 A 1.5 1.24447 360 1 1 1.03115 -7.08329 L 1.03115 -4.29187" />
    <path d="M 1.03115 -7.08329 A 1.5 1.24447 360 0 1 1.16112 -7.59001" />
    <path d="M -2.53653 0.91635 A 1.5 1.46018 297.19526 0 1 -0.85502 0.65607 L 0.16291 1.17911" />
    <path d="M -0.85502 0.65607 A 1.5 1.46018 297.19526 1 1 -2.22609 3.32443 L -1.20816 3.84747" />
    <path d="M -2.22609 3.32443 A 1.5 1.46018 297.19526 0 1 -2.99355 1.80581" />
    <path d="M 2.98782 -6.91439 A 0.5 0.41482 360 0 1 2.03115 -7.08329" />
    <path d="M 3.03115 -7.08329 A 0.5 0.41482 360 0 1 2.98782 -6.91439" />
    <path d="M -1.08388 2.15915 A 0.5 0.48673 297.19526 0 1 -1.76906 2.43498" />
    <path d="M -1.31204 1.54552 A 0.5 0.48673 297.19526 0 1 -1.08388 2.15915" />
    <path d="M 2.98782 -14.73037 A 0.5 0.41482 360 0 1 2.03115 -14.89927 L 2.03115 -7.08329" />
    <path d="M 2.03115 -14.89927 A 0.5 0.41482 360 1 1 3.03115 -14.89927 L 3.03115 -7.08329" />
    <path d="M 3.03115 -14.89927 A 0.5 0.41482 360 0 1 2.98782 -14.73037" />
    <path d="M -3.93407 0.69465 A 0.5 0.48673 297.19526 0 1 -4.61926 0.97048 L -1.76906 2.43498" />
    <path d="M -4.61926 0.97048 A 0.5 0.48673 297.19526 0 1 -4.16223 0.08102 L -1.31204 1.54552" />
    <path d="M -4.16223 0.08102 A 0.5 0.48673 297.19526 0 1 -3.93407 0.69465" />
    <path d="M 7.53115 2.17374 L 7.53115 4.08239" />
    <path d="M -0.51786 8.13716 L 0.24603 8.52967" />
</svg>