<svg version="1.1" xmlns="http://www.w3.org/2000/svg" viewBox="-6.041913577034678 -8.6101371164891 13.148271069294921 16.982561948830522" fill="none" stroke="black" stroke-width="0.6%" vector-effect="non-scaling-stroke">
    <path d="M -4.77546 3.14927 A 4.5 2.6044 180 0 0 -3.67755 4.85398 C -3.69 4.8 -3.71 4.74 -3.71999 4.68527 C -3.73 4.63 -3.75 4.57 -3.76135 4.51635 C -3.77 4.46 -3.79 4.4 -3.80162 4.34725 C -3.81 4.29 -3.83 4.23 -3.84081 4.178 C -3.86 4.11 -3.87 4.04 -3.88672 3.97321 C -3.9 3.9 -3.92 3.84 -3.93102 3.76837 C -3.95 3.7 -3.96 3.63 -3.97371 3.56348 C -3.99 3.5 -4 3.43 -4.01483 3.35856 C -4.03 3.29 -4.04 3.22 -4.05437 3.15364 C -4.07 3.09 -4.08 3.02 -4.09237 2.94875 C -4.1 2.88 -4.12 2.81 -4.12884 2.7439 C -4.14 2.68 -4.15 2.61 -4.16381 2.53914" />
    <path d="M 2.24081 -2.84655 L 1.68692 -2.57336 L 1.09344 -2.35178 L 0.47235 -2.18627 L -0.16382 -2.08017 L -0.80225 -2.03561 L -1.43005 -2.05351 L -2.03456 -2.13349 L -2.60359 -2.27394 L -3.12565 -2.47203 L -3.59023 -2.72377 L -3.98794 -3.02408 L -4.31077 -3.36689 L -4.55221 -3.7453 L -4.70738 -4.15167" />
    <path d="M 2.24081 -2.84655 A 4.5 2.6044 360 0 1 -4.77546 -5.00573 A 4.5 2.6044 360 0 1 4.13676 -5.51764" />
    <path d="M -3.78765 4.78921 A 5 3.35231 170.50921 0 0 6.07547 3.14032" />
    <path d="M -2.96614 -5.83817 A 5 3.35231 350.50921 0 1 4.85209 -4.17756 L 6.07547 3.14032" />
    <path d="M 4.85209 -4.17756 A 5 3.35231 350.50921 0 1 -5.01103 -2.52867 L -4.16381 2.53914" />
    <path d="M -5.01103 -2.52867 A 5 3.35231 350.50921 0 1 -4.70738 -4.15167" />
    <path d="M 2.24081 -2.84655 L -2.96614 -5.83817" />
    <path d="M -4.77546 -5.00573 L -4.77546 -4.01824" />
    <path d="M -4.77546 -1.11954 L -4.77546 3.14927" />
    <path d="M -3.78988 4.77586 L -3.78765 4.78921" />
</svg>