<svg version="1.1" xmlns="http://www.w3.org/2000/svg" viewBox="-12.326607352782018 -17.014054554476065 24.455816092942918 30.983795596031264" fill="none" stroke="black" stroke-width="0.6%" vector-effect="non-scaling-stroke">
    <path d="M 9.46809 8.45829 A 9 5.7192 180 0 0 11.12921 5.14771" />
    <path d="M -6.80016 -11.00999 A 9 5.7192 0 0 1 11.12921 -10.29486 A 9 5.7192 0 0 1 6.13701 -5.17403 A 9 7.52955 334.54503 0 1 -10.70592 -0.87631 A 9 7.52955 334.54503 0 1 -6.80016 -11.00999 L 6.13701 -5.17403 L 4.92916 -4.48036 L 3.66241 -3.93975 L 2.36341 -3.56357 L 1.05948 -3.35973 L -0.22195 -3.33252 L -1.45391 -3.48251 L -2.61051 -3.80655 L -3.66739 -4.29783 L -4.60234 -4.946 L -5.39569 -5.73743 L -6.03074 -6.65547 L -6.49413 -7.68082 L -6.77613 -8.7919 L -6.87079 -9.96533" />
    <path d="M 9.46809 8.45829 L 9.28054 7.4715 L 9.08415 6.48185 L 8.87917 5.49055 L 8.66586 4.49882 L 8.44449 3.50789 L 8.21531 2.51899 L 7.97862 1.53334 L 7.73471 0.55215 L 7.48387 -0.42337 L 7.22643 -1.39201 L 6.96269 -2.35258 L 6.69299 -3.30388 L 6.41765 -4.24475 L 6.13701 -5.17403 A 9 5.7192 360 0 1 -6.87079 -10.29486 L -6.87079 -9.96533" />
    <path d="M -5.9971 9.01593 A 9 7.52955 154.54503 0 0 9.46809 8.45829" />
    <path d="M 5.87083 -7.93181 L 5.95483 -7.74394 L 6.02903 -7.55381 L 6.09336 -7.36164 L 6.14774 -7.16764 L 6.19212 -6.97201 L 6.22645 -6.77498 L 6.25069 -6.57676 L 6.26481 -6.37755 L 6.2688 -6.17759 L 6.26265 -5.97709 L 6.24638 -5.77626 L 6.21999 -5.57533 L 6.18352 -5.37451 L 6.13701 -5.17403" />
    <path d="M -6.80016 -11.00999 A 9 7.52955 334.54503 0 1 5.5467 -8.61274 L 5.87083 -7.93181" />
    <path d="M 5.5467 -8.61274 A 9 7.52955 334.54503 0 1 6.13701 -5.17403" />
    <path d="M -6.87079 -10.29486 A 9 5.7192 360 0 1 -6.80016 -11.00999" />
    <path d="M 11.12921 -10.29486 L 11.12921 5.14771" />
    <path d="M -10.70592 -0.87631 L -5.9971 9.01593" />
</svg>