<svg version="1.1" xmlns="http://www.w3.org/2000/svg" viewBox="-9.59695323845831 -14.090219561440962 19.193906476916624 22.065845896670254" fill="none" stroke="black" stroke-width="0.6%" vector-effect="non-scaling-stroke">
    <path d="M -6.04292 3.46708 L -5.1147 3.8459" />
    <path d="M -5.7012 2.64986 L 0.08704 5.01213 L 0.11929 5.10471 L 0.14849 5.19447 L 0.17461 5.28137 L 0.19764 5.36537 L 0.21759 5.44643 L 0.23442 5.52452 L 0.24815 5.5996 L 0.25875 5.67163 L 0.26623 5.74058 L 0.27059 5.80641 L 0.27181 5.86911 L 0.26991 5.92863 L 0.26487 5.98496 L 0.25672 6.03805 L 2.55404 6.97563 L 0 3.63393 L 3.48888 -3.2652 L 3.48888 -3.67674 L 3.98986 -4.25587 L 4.42372 -5.11382 L -4.17323 -8.62237 L -4.60709 -7.76442 L 3.98986 -4.25587" />
    <path d="M -8.59695 0.12539 L 0 3.63393" />
    <path d="M -6.04292 3.46708 L -8.59695 0.12539" />
    <path d="M -0.01289 6.661 A 4.5 4.17835 112.98674 0 0 2.33746 6.88724" />
    <path d="M 2.63545 6.81464 A 4.5 4.17835 112.98674 0 0 5.61307 4.09717 L 5.55341 4.00006 L 5.49294 3.90263 L 5.43165 3.8049 L 5.36957 3.7069 L 5.3067 3.60863 L 5.24307 3.51014 L 5.17868 3.41143 L 5.11355 3.31252 L 5.04769 3.21345 L 4.98112 3.11422 L 4.91385 3.01486 L 4.8459 2.9154 L 4.77727 2.81586 L 4.708 2.71624" />
    <path d="M 0.08704 5.01213 A 4.5 4.17835 292.98674 0 1 -3.43086 5.21109 A 4.5 4.17835 292.98674 0 1 -5.7012 2.64986" />
    <path d="M 2.55404 6.97563 L 5.35856 1.42977 L 8.59695 -2.3138 L 8.59695 -9.58167 L 0 -13.09022 L -3.94537 -8.52937" />
    <path d="M 4.56834 -4.9246 L 4.42372 -5.11382" />
    <path d="M 4.56834 -4.9246 L 8.59695 -9.58167" />
    <path d="M -5.10807 -6.77375 L -8.59695 0.12539" />
    <path d="M -5.10807 -6.77375 L 3.48888 -3.2652" />
    <path d="M -4.60709 -7.76442 L -5.10807 -7.18529 L 3.48888 -3.67674" />
    <path d="M -5.10807 -6.77375 L -5.10807 -7.18529" />
    <path d="M 5.61307 4.09717 A 4.5 3.60792 169.76407 0 0 6.17282 1.71866" />
    <path d="M -3.43086 5.21109 L -0.01289 6.661" />
    <path d="M 5.98904 0.70094 L 6.17282 1.71866" />
</svg>