<svg version="1.1" xmlns="http://www.w3.org/2000/svg" viewBox="-9.42961472203829 -11.983471353406285 18.85922944407658 21.674918365493056" fill="none" stroke="black" stroke-width="0.6%" vector-effect="non-scaling-stroke">
    <path d="M 5.73963 6.0224 A 5 3.82167 180 0 0 6.52489 3.96635" />
    <path d="M 5.73963 6.0224 L 5.70029 5.84945 L 5.66008 5.6761 L 5.61901 5.50239 L 5.57708 5.32837 L 5.5343 5.15406 L 5.49069 4.9795 L 5.44625 4.80473 L 5.40098 4.62978 L 5.35491 4.45469 L 5.30804 4.27951 L 5.26037 4.10425 L 5.21192 3.92897 L 5.16271 3.7537 L 5.11273 3.57847" />
    <path d="M -2.63058 6.747 A 5 4.59668 146.21145 0 0 2.10363 8.60044" />
    <path d="M 2.22625 8.57555 A 5 4.59668 146.21145 0 0 5.73963 6.0224" />
    <path d="M 5.73963 2.7983 L 8.42961 -0.42317 L 8.42961 -6.87137 L 4.02203 -9.0215" />
    <path d="M 5.16785 3.48304 L 5.73963 2.7983" />
    <path d="M 0.00015 -10.98347 L -3.23284 -7.11172" />
    <path d="M -3.51476 -7.24925 L -4.40516 -5.70778 L -5.37983 -4.54055 L -4.55087 -4.13616" />
    <path d="M -5.37983 -4.02043 L -5.37983 -4.54055" />
    <path d="M -5.37983 -4.02043 L -8.42961 1.25938 L -0.00015 5.37148 L 3.04964 0.09166 L 3.04964 -0.42845 L 4.0243 -1.59568 L 4.9147 -3.13715 L 2.36443 -4.38124" />
    <path d="M -6.24138 4.52954 L -8.42961 1.25938" />
    <path d="M 0.58181 -10.69972 L 0.00015 -10.98347" />
    <path d="M 4.64551 4.38732 L 5.16785 3.48304" />
    <path d="M 2.18808 8.64164 L 4.64551 4.38732 L 3.55139 2.75224" />
    <path d="M 2.18808 8.64164 L -0.00015 5.37148" />
    <path d="M 5.09121 -2.87338 L 4.9147 -3.13715" />
    <path d="M 5.09121 -2.87338 L 8.42961 -6.87137" />
    <path d="M -6.24138 4.52954 L -2.02665 6.58559 L 2.18808 8.64164" />
    <path d="M 2.90988 -4.11515 A 2.5 1.91083 180 0 0 4.02489 -5.70596" />
    <path d="M -3.12077 4.95051 L -2.02665 6.58559" />
    <path d="M -0.96449 -6.00516 L -3.51476 -7.24925" />
    <path d="M -0.96449 -6.00516 L -0.9136 -5.69003 L -0.82151 -5.39065 L -0.68978 -5.11205 L -0.52062 -4.85895 L -0.31691 -4.63563 L -0.08208 -4.44586 L 0.1799 -4.29285 L 0.46461 -4.17917 L 0.76723 -4.10676 L 1.08265 -4.07684 L 1.40554 -4.0899 L 1.73045 -4.14574 L 2.05189 -4.2434 L 2.36443 -4.38124" />
    <path d="M -4.40516 -5.70778 L -2.81465 -4.93189" />
    <path d="M -0.74606 -3.92278 L 4.0243 -1.59568" />
    <path d="M -5.37983 -4.02043 L -4.85644 -3.76512" />
    <path d="M -3.83519 0.45144 A 2.5 2.29834 146.21145 0 0 0.6812 -1.06372 L 3.04964 0.09166" />
    <path d="M -0.58247 -9.95809 A 2.5 1.91083 0 0 1 4.02489 -8.93006 L 4.02489 -5.70596" />
    <path d="M 4.02489 -8.93006 A 2.5 1.91083 0 0 1 -0.97511 -8.93006 L -0.97511 -6.01034" />
    <path d="M -0.97511 -8.93006 A 2.5 1.91083 0 0 1 -0.58247 -9.95809" />
    <path d="M 0.49936 -1.67253 L 3.04964 -0.42845" />
    <path d="M 0.49936 -1.67253 L 0.49433 -1.73297 L 0.487 -1.79311 L 0.47739 -1.8529 L 0.46549 -1.91228 L 0.45132 -1.97121 L 0.43489 -2.02963 L 0.41623 -2.08749 L 0.39533 -2.14474 L 0.37223 -2.20132 L 0.34694 -2.25718 L 0.31949 -2.31228 L 0.28989 -2.36657 L 0.25819 -2.41999 L 0.2244 -2.4725" />
    <path d="M 0.49936 -1.67253 L 0.51377 -1.6302 L 0.52797 -1.58766 L 0.54195 -1.54494 L 0.55572 -1.50202 L 0.56927 -1.45892 L 0.58261 -1.41565 L 0.59572 -1.3722 L 0.60861 -1.32858 L 0.62128 -1.28481 L 0.63372 -1.24088 L 0.64594 -1.1968 L 0.65792 -1.15257 L 0.66968 -1.10821 L 0.6812 -1.06372" />
    <path d="M -4.95894 -3.60199 A 2.5 2.29834 326.21145 0 1 -0.77383 -3.96429 L 0.2244 -2.4725" />
    <path d="M -0.77383 -3.96429 A 2.5 2.29834 326.21145 0 1 -4.92931 -1.18364 L -3.83519 0.45144" />
    <path d="M -4.92931 -1.18364 A 2.5 2.29834 326.21145 0 1 -4.95894 -3.60199" />
    <path d="M 6.52489 1.85788 L 6.52489 3.96635" />
    <path d="M -3.08362 6.06997 L -2.63058 6.747" />
</svg>