<svg version="1.1" xmlns="http://www.w3.org/2000/svg" viewBox="-8.785574061874051 -9.852506400564733 19.070542154496916 20.227058346982524" fill="none" stroke="black" stroke-width="0.6%" vector-effect="non-scaling-stroke">
    <path d="M -3.71382 6.14189 L -3.71382 -3.23242 L 0.00028 0.00024 L 9.28497 -1.2929 L 5.57087 -4.52556 L -3.71382 -3.23242" />
    <path d="M 0.00028 9.37455 L 0.00028 0.00024" />
    <path d="M -3.71382 6.14189 L 0.00028 9.37455 L 9.28497 8.08141 L 9.28497 -1.2929" />
    <path d="M -4.64262 -8.72798 A 5 1.74086 360 0 1 2.21443 -7.11165 L 2.21443 -4.05809" />
    <path d="M 2.21443 -7.11165 A 5 1.74086 360 0 1 -7.78557 -7.11165 L -7.78557 2.26266 A 5 1.74086 180 0 0 -3.71382 3.97325" />
    <path d="M -7.78557 -7.11165 A 5 1.74086 360 0 1 -4.64262 -8.72798" />
</svg>