<svg version="1.1" xmlns="http://www.w3.org/2000/svg" viewBox="-10.002985755426959 -12.172046641398667 20.005971510853914 22.114775592794683" fill="none" stroke="black" stroke-width="0.6%" vector-effect="non-scaling-stroke">
    <path d="M 9.00298 0.15791 L 9.00298 -6.401 L 3.59078 -9.26918" />
    <path d="M 1.32618 -10.4693 L 0.00012 -11.17205 L -3.45276 -7.45946" />
    <path d="M 5.72082 6.30953 A 5 3.77428 180 0 0 6.62861 4.14087" />
    <path d="M 5.72082 6.30953 L 5.6886 6.1721 L 5.65588 6.03441 L 5.62266 5.89649 L 5.58894 5.75836 L 5.55473 5.62002 L 5.52004 5.4815 L 5.48487 5.34282 L 5.44922 5.20398 L 5.41309 5.06501 L 5.3765 4.92593 L 5.33944 4.78676 L 5.30193 4.6475 L 5.26396 4.50818 L 5.22554 4.36881" />
    <path d="M -6.66592 4.17168 L -2.16449 6.5572 L 2.33694 8.94273 L 5.51938 3.90353 L 9.00298 0.15791" />
    <path d="M -3.75385 -7.61903 L -4.70481 -6.11324 L -5.74577 -4.99399 L -4.23424 -4.19296" />
    <path d="M -5.74577 -4.46495 L -5.74577 -4.99399" />
    <path d="M -5.74577 -4.46495 L -9.00298 0.69266 L -0.00012 5.46371 L 3.2571 0.3061 L 3.2571 -0.22294 L 4.29805 -1.34219 L 5.24901 -2.84798 L 1.79854 -4.67655" />
    <path d="M -6.66592 4.17168 L -9.00298 0.69266" />
    <path d="M 2.33694 8.94273 L -0.00012 5.46371" />
    <path d="M 5.43752 -2.56736 L 5.24901 -2.84798" />
    <path d="M 5.43752 -2.56736 L 9.00298 -6.401" />
    <path d="M 2.46183 -4.32504 A 2 1.50971 180 0 0 3.62861 -5.69749" />
    <path d="M -2.52186 6.92899 A 5 4.53967 146.10842 0 0 2.00013 8.76424" />
    <path d="M 2.51912 8.65426 A 5 4.53967 146.10842 0 0 5.72082 6.30953" />
    <path d="M -3.33302 4.81769 L -2.16449 6.5572" />
    <path d="M -0.30339 -5.79046 L -0.2424 -5.61232 L -0.16286 -5.44425 L -0.06557 -5.28792 L 0.04851 -5.14488 L 0.17825 -5.01654 L 0.32237 -4.90418 L 0.47943 -4.80891 L 0.64788 -4.73167 L 0.82606 -4.67324 L 1.01218 -4.63418 L 1.20442 -4.61489 L 1.40086 -4.61556 L 1.59956 -4.63618 L 1.79854 -4.67655" />
    <path d="M -0.00828 -9.84441 A 2 1.50971 360 0 1 3.62861 -8.97695 L 3.62861 -5.69749" />
    <path d="M 3.62861 -8.97695 A 2 1.50971 360 1 1 -0.37139 -8.97695 L -0.37139 -5.8265" />
    <path d="M -0.37139 -8.97695 A 2 1.50971 360 0 1 -0.00828 -9.84441" />
    <path d="M -0.30339 -5.79046 L -3.75385 -7.61903" />
    <path d="M -5.74577 -4.46495 L -4.57199 -3.84291" />
    <path d="M -3.53718 0.03759 A 2 1.81587 146.10842 0 0 0.06194 -1.38717 L 3.2571 0.3061" />
    <path d="M -4.70481 -6.11324 L 4.29805 -1.34219" />
    <path d="M -0.19337 -2.05151 L -0.20148 -2.0782 L -0.21021 -2.10473 L -0.21954 -2.1311 L -0.22948 -2.1573 L -0.24002 -2.18332 L -0.25116 -2.20916 L -0.2629 -2.2348 L -0.27523 -2.26024 L -0.28814 -2.28547 L -0.30165 -2.31048 L -0.31573 -2.33527 L -0.33039 -2.35982 L -0.34563 -2.38414 L -0.36143 -2.4082" />
    <path d="M -0.19337 -2.05151 L -0.17318 -2.00693 L -0.15326 -1.96187 L -0.13364 -1.91632 L -0.1143 -1.8703 L -0.09526 -1.82383 L -0.07653 -1.77692 L -0.0581 -1.72958 L -0.03998 -1.68182 L -0.02217 -1.63365 L -0.00469 -1.58509 L 0.01247 -1.53615 L 0.02929 -1.48684 L 0.04578 -1.43717 L 0.06194 -1.38717" />
    <path d="M -4.6824 -3.68463 A 2 1.81587 326.10842 0 1 -1.38533 -3.93242 L -0.36143 -2.4082" />
    <path d="M -1.38533 -3.93242 A 2 1.81587 326.10842 0 1 -4.70571 -1.70193 L -3.53718 0.03759" />
    <path d="M -4.70571 -1.70193 A 2 1.81587 326.10842 0 1 -4.6824 -3.68463" />
    <path d="M -0.19337 -2.05151 L 3.2571 -0.22294" />
    <path d="M 6.62861 2.71087 L 6.62861 4.14087" />
    <path d="M -3.10722 6.0576 L -2.52186 6.92899" />
</svg>