<svg version="1.1" xmlns="http://www.w3.org/2000/svg" viewBox="-11.80222766837794 -16.746070321614177 23.417324233824353 30.205433433155815" fill="none" stroke="black" stroke-width="0.6%" vector-effect="non-scaling-stroke">
    <path d="M 9.08928 8.14966 A 8.5 5.49336 180 0 0 10.6151 5.00934" />
    <path d="M -6.35438 -10.71784 A 8.5 5.49336 360 0 1 10.6151 -10.25271 A 8.5 5.49336 360 0 1 5.72419 -5.27912 A 8.5 7.18309 334.222 0 1 -10.18932 -0.92314 A 8.5 7.18309 334.222 0 1 -6.35438 -10.71784 L 5.72419 -5.27912 L 4.58636 -4.65381 L 3.39771 -4.17332 L 2.18268 -3.84755 L 0.96627 -3.6832 L -0.22652 -3.68363 L -1.37116 -3.84885 L -2.44411 -4.17545 L -3.42331 -4.65672 L -4.28862 -5.28277 L -5.02224 -6.04071 L -5.6091 -6.91497 L -6.03712 -7.88757 L -6.29751 -8.9385 L -6.3849 -10.04615" />
    <path d="M 9.08928 8.14966 L 8.90266 7.17468 L 8.70654 6.19667 L 8.5012 5.217 L 8.28692 4.23704 L 8.064 3.25816 L 7.83276 2.28173 L 7.59352 1.30911 L 7.34661 0.34168 L 7.09238 -0.61923 L 6.83118 -1.57225 L 6.56338 -2.51607 L 6.28936 -3.44935 L 6.0095 -4.3708 L 5.72419 -5.27912 A 8.5 5.49336 0 0 1 -6.3849 -10.25271 L -6.3849 -10.04615" />
    <path d="M -5.53903 8.70586 A 8.5 7.18309 154.222 0 0 9.08928 8.14966" />
    <path d="M 5.39681 -7.74083 L 5.47326 -7.57328 L 5.54172 -7.40381 L 5.60213 -7.23256 L 5.65443 -7.0597 L 5.69856 -6.8854 L 5.73449 -6.70981 L 5.76219 -6.53311 L 5.78162 -6.35546 L 5.79277 -6.17703 L 5.79562 -5.998 L 5.79018 -5.81852 L 5.77646 -5.63876 L 5.75445 -5.45891 L 5.72419 -5.27912" />
    <path d="M -6.35438 -10.71784 A 8.5 7.18309 334.222 0 1 5.11894 -8.31619 L 5.39681 -7.74083" />
    <path d="M 5.11894 -8.31619 A 8.5 7.18309 334.222 0 1 5.72419 -5.27912" />
    <path d="M -6.3849 -10.25271 A 8.5 5.49336 0 0 1 -6.35438 -10.71784" />
    <path d="M 10.6151 -10.25271 L 10.6151 5.00934" />
    <path d="M -10.18932 -0.92314 L -5.53903 8.70586" />
</svg>