<svg version="1.1" xmlns="http://www.w3.org/2000/svg" viewBox="-7.258308493393051 -9.424948727496819 14.221236307346064 16.31029226038884" fill="none" stroke="black" stroke-width="0.6%" vector-effect="non-scaling-stroke">
    <path d="M 5.30894 2.99238 A 4.5 4.0886 302.06475 0 1 -0.89872 5.3109" />
    <path d="M 5.30894 2.99238 L 5.1148 2.63333 L 4.91313 2.27193 L 4.70437 1.90892 L 4.48893 1.54506 L 4.26727 1.1811 L 4.03985 0.81779 L 3.80713 0.4559 L 3.56961 0.09617 L 3.32778 -0.26066 L 3.08213 -0.61384 L 2.83317 -0.96263 L 2.58143 -1.30633 L 2.32743 -1.6442 L 2.07169 -1.97555 A 4.5 4.0886 302.06475 0 1 -4.43864 3.09335 A 4.5 4.0886 302.06475 0 1 -4.06419 -4.37771 A 4.5 3.38203 350.40166 0 1 4.82731 -5.75722 A 4.5 3.38203 350.40166 0 1 2.07169 -1.97555 A 4.5 3.38203 350.40166 0 1 -4.04669 -4.25656 L -4.0385 -4.20809" />
    <path d="M 5.92723 0.74705 A 4.5 3.38203 350.40166 0 1 5.30894 2.99238" />
    <path d="M 2.07169 -1.97555 L 1.54566 -1.62723 L 0.99703 -1.35372 L 0.43514 -1.15969 L -0.13041 -1.04845 L -0.68998 -1.02189 L -1.23403 -1.08047 L -1.75327 -1.22319 L -2.23886 -1.44762 L -2.68249 -1.74992 L -3.07662 -2.12494 L -3.41451 -2.56628 L -3.6904 -3.06642 L -3.89958 -3.61682 L -4.0385 -4.20809" />
    <path d="M 0.69811 -4.30889 L 0.87354 -4.19111 L 1.03865 -4.06403 L 1.19297 -3.92804 L 1.33602 -3.78353 L 1.46739 -3.63094 L 1.58668 -3.47073 L 1.69354 -3.30336 L 1.78765 -3.12933 L 1.86873 -2.94917 L 1.93655 -2.7634 L 1.99089 -2.57258 L 2.0316 -2.37728 L 2.05856 -2.17807 L 2.07169 -1.97555" />
    <path d="M -4.04669 -4.25656 A 4.5 3.38203 350.40166 0 1 -4.06419 -4.37771 L 2.07169 -1.97555" />
    <path d="M -4.06419 -4.37771 A 4.5 4.0886 302.06475 0 1 0.33926 -4.53369 L 0.69811 -4.30889" />
    <path d="M 0.33926 -4.53369 A 4.5 4.0886 302.06475 0 1 2.07169 -1.97555" />
    <path d="M -4.43864 3.09335 L -0.89872 5.3109" />
    <path d="M 4.82731 -5.75722 L 5.92723 0.74705" />
</svg>