<svg version="1.1" xmlns="http://www.w3.org/2000/svg" viewBox="-9.59695323845831 -14.090219561189002 19.193906476916624 22.32110685287994" fill="none" stroke="black" stroke-width="0.6%" vector-effect="non-scaling-stroke">
    <path d="M 6.04292 4.27259 A 5 4.53624 322.60952 0 1 -2.0142 5.81204" />
    <path d="M 6.04292 4.27259 L 5.99659 4.08274 L 5.94891 3.89239 L 5.89989 3.7016 L 5.84954 3.51043 L 5.79788 3.31894 L 5.74493 3.1272 L 5.6907 2.93527 L 5.63521 2.7432 L 5.57847 2.55106 L 5.52051 2.35891 L 5.46135 2.16681 L 5.401 1.97482 L 5.33948 1.783 L 5.27682 1.59142" />
    <path d="M 1.22447 6.43301 C 1.2 6.44 1.18 6.44 1.15756 6.45004 C 1.14 6.46 1.11 6.46 1.08951 6.46568 C 1.07 6.47 1.04 6.48 1.02039 6.47989 C 1 6.48 0.97 6.49 0.95023 6.49262 C 0.93 6.5 0.9 6.5 0.8791 6.50384 C 0.86 6.51 0.83 6.51 0.80704 6.51351 C 0.78 6.52 0.76 6.52 0.73413 6.52158 C 0.71 6.52 0.69 6.53 0.66041 6.52804 C 0.64 6.53 0.61 6.53 0.58595 6.53283 C 0.56 6.53 0.54 6.54 0.51082 6.53594 C 0.49 6.54 0.46 6.54 0.43507 6.53734 C 0.41 6.54 0.38 6.54 0.35878 6.53702 C 0.33 6.54 0.31 6.54 0.28202 6.53494 C 0.26 6.53 0.23 6.53 0.20484 6.53109 C 0.18 6.53 0.15 6.53 0.12732 6.52547 C 0.1 6.52 0.08 6.52 0.04954 6.51805 C 0.01 6.51 -0.03 6.51 -0.07536 6.50245 C -0.12 6.5 -0.16 6.49 -0.20062 6.48223 C -0.24 6.47 -0.28 6.47 -0.32602 6.45737 C -0.37 6.45 -0.41 6.44 -0.45134 6.42787 C -0.49 6.42 -0.53 6.41 -0.57636 6.39377 C -0.62 6.38 -0.66 6.37 -0.70085 6.35509 C -0.74 6.34 -0.78 6.33 -0.8246 6.31187 C -0.87 6.3 -0.91 6.28 -0.94741 6.26418 C -0.96 6.26 -0.98 6.25 -0.99657 6.24372" />
    <path d="M 6.04292 4.27259 A 5 3.43432 180 0 0 6.74444 2.51832" />
    <path d="M 5.35856 1.42977 L 6.04292 0.63866 L 8.59695 -2.3138 L 8.59695 -9.58167 L 0 -13.09022 L -3.94537 -8.52937" />
    <path d="M -4.17323 -8.62237 L -4.60709 -7.76442 L -5.10807 -7.18529 L 3.48888 -3.67674 L 3.98986 -4.25587 L 4.42372 -5.11382 L -4.17323 -8.62237 Z" />
    <path d="M -6.04292 3.46708 L -8.59695 0.12539 L 0 3.63393 L 3.48888 -3.2652 L 3.48888 -3.67674" />
    <path d="M -5.10807 -6.77375 L -8.59695 0.12539" />
    <path d="M -5.10807 -6.77375 L -5.10807 -7.18529" />
    <path d="M -6.04292 3.46708 L -5.1147 3.8459" />
    <path d="M 0.08704 5.01213 A 4.5 4.17835 292.98674 0 1 -3.43086 5.21109 L -0.99657 6.24372" />
    <path d="M -3.43086 5.21109 A 4.5 4.17835 292.98674 0 1 -5.7012 2.64986 L -2.80708 3.831 L 0.08704 5.01213 L 0.11929 5.10471 L 0.14849 5.19447 L 0.17461 5.28137 L 0.19764 5.36537 L 0.21759 5.44643 L 0.23442 5.52452 L 0.24815 5.5996 L 0.25875 5.67163 L 0.26623 5.74058 L 0.27059 5.80641 L 0.27181 5.86911 L 0.26991 5.92863 L 0.26487 5.98496 L 0.25672 6.03805 L 2.55404 6.97563 L 0 3.63393" />
    <path d="M 2.55404 6.97563 L 4.7659 2.60175 L 3.48888 0.9309" />
    <path d="M 4.7659 2.60175 L 5.35856 1.42977" />
    <path d="M 4.56834 -4.9246 L 8.59695 -9.58167" />
    <path d="M 4.56834 -4.9246 L 4.42372 -5.11382" />
    <path d="M -4.60709 -7.76442 L 3.98986 -4.25587" />
    <path d="M -3.02146 3.55051 L -2.80708 3.831" />
    <path d="M -5.10807 -6.77375 L 3.48888 -3.2652" />
    <path d="M 6.74444 -0.1723 L 6.74444 2.51832" />
</svg>