<svg version="1.1" xmlns="http://www.w3.org/2000/svg" viewBox="-6.724192804650391 -4.6922607237444796 11.588287895217988 9.825886977563062" fill="none" stroke="black" stroke-width="0.6%" vector-effect="non-scaling-stroke">
    <path d="M 1.84793 4.13363 L 1.71392 3.87079 L 1.57893 3.6075 L 1.44301 3.34387 L 1.30622 3.07997 L 1.1686 2.81591 L 1.03019 2.55177 L 0.89105 2.28765 L 0.75122 2.02364 L 0.61075 1.75984 L 0.4697 1.49633 L 0.32811 1.2332 L 0.18604 0.97056 L 0.04352 0.70849 L -0.09938 0.44709 L -0.03528 0.40346 L 0.0284 0.35932 L 0.09164 0.31467 L 0.15443 0.26953 L 0.21676 0.22391 L 0.27861 0.17782 L 0.33997 0.13126 L 0.40082 0.08425 L 0.46115 0.0368 L 0.52094 -0.01109 L 0.5802 -0.05939 L 0.63889 -0.10811 L 0.69701 -0.15723 L 0.75455 -0.20673 L 0.77121 -0.21076 L 0.78782 -0.21481 L 0.8044 -0.21888 L 0.82093 -0.22298 L 0.83743 -0.2271 L 0.85388 -0.23124 L 0.87029 -0.23541 L 0.88666 -0.2396 L 0.90299 -0.24381 L 0.91927 -0.24805 L 0.93551 -0.25231 L 0.95171 -0.25659 L 0.96786 -0.2609 L 0.98398 -0.26523 L 1.28231 -0.35201 L 1.56318 -0.44665 L 1.82507 -0.54862 L 2.06654 -0.65738 L 2.28629 -0.77234 L 2.48311 -0.89286 L 2.65594 -1.01829 L 2.80384 -1.14795 L 2.926 -1.28113 L 3.02176 -1.41711 L 3.0906 -1.55516 L 3.13214 -1.69451 L 3.14616 -1.83441 L 3.13259 -1.97411 L 3.01961 -2.25554 L 2.79459 -2.52655 L 2.46262 -2.78102 L 2.03121 -3.01318 L 1.51014 -3.21777 L 0.91121 -3.39016 L 0.24798 -3.52644 L -0.46453 -3.62352 L -1.21018 -3.67922 L -1.97209 -3.69226 L -2.73299 -3.66235 L -3.47566 -3.59018 L -4.18329 -3.47736 L -4.83983 -3.32647 L -4.8559 -3.32211 L -4.87192 -3.31774 L -4.8879 -3.31334 L -4.90384 -3.30892 L -4.91973 -3.30448 L -4.93557 -3.30001 L -4.95138 -3.29552 L -4.96713 -3.29101 L -4.98284 -3.28648 L -4.99851 -3.28192 L -5.01412 -3.27734 L -5.0297 -3.27274 L -5.04522 -3.26812 L -5.0607 -3.26348 L -5.11291 -3.21117 L -5.16442 -3.15858 L -5.21522 -3.10571 L -5.26531 -3.05259 L -5.31466 -2.99921 L -5.36327 -2.9456 L -5.41113 -2.89176 L -5.45822 -2.8377 L -5.50454 -2.78345 L -5.55008 -2.729 L -5.59482 -2.67437 L -5.63876 -2.61958 L -5.68189 -2.56464 L -5.72419 -2.50955 L -5.60857 -2.26248 L -5.49134 -2.01371 L -5.37257 -1.76332 L -5.25229 -1.5114 L -5.13054 -1.25803 L -5.00736 -1.00331 L -4.8828 -0.74733 L -4.7569 -0.49017 L -4.6297 -0.23192 L -4.50126 0.02732 L -4.3716 0.28746 L -4.24079 0.54841 L -4.10887 0.81008 L -3.97588 1.07239 L 1.84793 4.13363 A 5 2.40258 168.8883 0 0 3.84229 1.63939" />
    <path d="M 1.46174 -1.50308 A 5 3.20426 134.88099 0 0 -3.97588 1.07239" />
    <path d="M -0.09938 0.44709 L -0.05573 0.38826 L -0.01308 0.32929 L 0.02856 0.27018 L 0.06919 0.21097 L 0.10878 0.15165 L 0.14734 0.09225 L 0.18484 0.03278 L 0.22128 -0.02674 L 0.25666 -0.0863 L 0.29095 -0.14587 L 0.32416 -0.20546 L 0.35626 -0.26503 L 0.38727 -0.32458 L 0.41716 -0.38408 L 0.75455 -0.20673" />
    <path d="M 0.41716 -0.38408 L 0.62568 -0.5133 L 0.81277 -0.64463 L 0.97768 -0.77755 L 1.11976 -0.91153 L 1.23843 -1.04603 L 1.33322 -1.18052 L 1.40374 -1.31444 L 1.44972 -1.44728 L 1.47096 -1.57848 L 1.4674 -1.70754 L 1.43903 -1.83393 L 1.38598 -1.95715 L 1.30845 -2.0767 L 1.20676 -2.1921 L 1.01862 -2.35014 L 0.78274 -2.4973 L 0.50111 -2.63237 L 0.17604 -2.75421 L -0.18975 -2.86183 L -0.59322 -2.95431 L -1.03102 -3.03089 L -1.49951 -3.09094 L -1.9948 -3.13396 L -2.51277 -3.15959 L -3.04912 -3.16761 L -3.59939 -3.15796 L -4.159 -3.13073 L -4.7233 -3.08613 L -4.79692 -3.04961 L -4.87029 -3.01233 L -4.94339 -2.9743 L -5.01619 -2.93553 L -5.08869 -2.89604 L -5.16087 -2.85582 L -5.23269 -2.8149 L -5.30415 -2.77328 L -5.37523 -2.73098 L -5.4459 -2.688 L -5.51615 -2.64435 L -5.58596 -2.60006 L -5.65532 -2.55512 L -5.72419 -2.50955" />
    <path d="M -5.0607 -3.26348 L -4.7233 -3.08613" />
    <path d="M 3.13259 -1.97411 L 3.84229 1.63939" />
</svg>