<svg version="1.1" xmlns="http://www.w3.org/2000/svg" viewBox="-9.419906942980344 -10.604006324050427 18.049703501719783 19.23594869513913" fill="none" stroke="black" stroke-width="0.6%" vector-effect="non-scaling-stroke">
    <path d="M -4.60492 4.35932 L -8.41991 2.34901 L -0.00019 5.62164 L 3.81481 -3.61138 L -4.60492 -6.88401 L -8.41991 2.34901" />
    <path d="M 3.81481 7.63194 L -0.00019 5.62164" />
    <path d="M -4.60492 4.35932 L 3.81481 7.63194 L 5.7223 3.01543 L 7.6298 -1.60108 L 5.7223 -2.60623 L 3.81481 -3.61138" />
    <path d="M -3.08026 -5.37212 L -2.89603 -4.96313 L -2.68003 -4.58948 L -2.4338 -4.25384 L -2.15913 -3.95865 L -1.85799 -3.70604 L -1.53255 -3.49781 L -1.18517 -3.33547 L -0.81833 -3.2202 L -0.4347 -3.15282 L -0.03703 -3.13383 L 0.37181 -3.16334 L 0.78887 -3.24117 L 1.21115 -3.36673 L 1.6356 -3.53913 A 5 3.0329 360 0 1 -3.08026 -5.37212 Z" />
    <path d="M 1.6356 -3.53913 L -3.08026 -5.37212" />
    <path d="M 6.51244 1.37912 A 5 3.0329 360 0 1 5.7223 3.01543" />
    <path d="M -3.48345 -6.44811 A 5 3.0329 360 0 1 -3.48756 -6.57111 L -3.48756 -6.44971" />
    <path d="M -3.48756 -6.57111 A 5 3.0329 360 1 1 6.51244 -6.57111 L 6.51244 -2.18987" />
    <path d="M 6.51244 -6.57111 A 5 3.0329 360 0 1 3.41566 -3.76652" />
    <path d="M 6.51244 1.10314 L 6.51244 1.37912" />
</svg>