<svg version="1.1" xmlns="http://www.w3.org/2000/svg" viewBox="-6.883768604086325 -9.391259814021913 13.609799430874492 16.700491805715806" fill="none" stroke="black" stroke-width="0.6%" vector-effect="non-scaling-stroke">
    <path d="M 4.96137 3.78845 A 4.5 3.91023 325.71018 0 1 -2.49186 4.73783" />
    <path d="M 4.96137 3.78845 L 4.8432 3.30154 L 4.71754 2.81235 L 4.58462 2.32189 L 4.44474 1.83119 L 4.29818 1.34125 L 4.14524 0.85311 L 3.98624 0.36776 L 3.82152 -0.11378 L 3.65141 -0.59051 L 3.47626 -1.06144 L 3.29645 -1.5256 L 3.11234 -1.98203 L 2.92432 -2.42977 L 2.73277 -2.86789 A 4.5 3.91023 325.71018 0 1 -5.28012 0.64883 A 4.5 3.91023 325.71018 0 1 -3.26916 -5.41599 A 4.5 2.84376 0 0 1 -3.27397 -5.5475 A 4.5 2.84376 0 1 1 5.72603 -5.5475 L 5.72603 2.20262 A 4.5 2.84376 0 0 1 4.96137 3.78845 Z" />
    <path d="M 5.72603 -5.5475 A 4.5 2.84376 0 0 1 2.73277 -2.86789 A 4.5 2.84376 0 0 1 -3.26916 -5.41599 L 2.73277 -2.86789 L 2.15592 -2.56079 L 1.56258 -2.32793 L 0.96328 -2.17345 L 0.36863 -2.10008 L -0.21081 -2.10913 L -0.76476 -2.20044 L -1.2834 -2.37238 L -1.75753 -2.62191 L -2.17874 -2.94461 L -2.53955 -3.33474 L -2.83356 -3.78538 L -3.05557 -4.28855 L -3.20163 -4.83532 L -3.26916 -5.41599 A 4.5 3.91023 325.71018 0 1 2.15566 -4.42158 L 2.35691 -4.12645 L 2.41094 -4.04355 L 2.46092 -3.95926 L 2.50682 -3.87365 L 2.5486 -3.7868 L 2.5862 -3.69878 L 2.61961 -3.60968 L 2.64878 -3.51958 L 2.6737 -3.42856 L 2.69433 -3.3367 L 2.71067 -3.2441 L 2.72269 -3.15083 L 2.73038 -3.05698 L 2.73374 -2.96264 L 2.73277 -2.86789" />
    <path d="M 2.15566 -4.42158 A 4.5 3.91023 325.71018 0 1 2.73277 -2.86789" />
    <path d="M -5.28012 0.64883 L -2.49186 4.73783" />
    <path d="M -3.27397 -5.5475 L -3.27397 -5.41344" />
</svg>