<svg version="1.1" xmlns="http://www.w3.org/2000/svg" viewBox="-9.351226616552243 -12.319122566435706 18.812565901357694 21.970221892174088" fill="none" stroke="black" stroke-width="0.6%" vector-effect="non-scaling-stroke">
    <path d="M 5.79636 5.96065 A 5 3.80677 180 0 0 6.56577 3.93166" />
    <path d="M 5.79636 5.96065 L 5.75739 5.78652 L 5.71755 5.61201 L 5.67684 5.43715 L 5.63526 5.26197 L 5.59284 5.08651 L 5.54958 4.91082 L 5.50548 4.73491 L 5.46056 4.55884 L 5.41483 4.38264 L 5.36829 4.20635 L 5.32095 4.02999 L 5.27284 3.85362 L 5.22394 3.67726 L 5.17429 3.50096" />
    <path d="M -2.61417 6.6754 A 5 4.59327 146.71888 0 0 2.22383 8.54443" />
    <path d="M 2.30225 8.52763 A 5 4.59327 146.71888 0 0 5.79636 5.96065" />
    <path d="M 5.79636 2.71897 L 8.46134 -0.50201 L 8.46134 -6.98537 L 4.56577 -8.85368" />
    <path d="M 5.22991 3.40361 L 5.79636 2.71897" />
    <path d="M 0.00015 -11.04335 L -0.08244 -10.94352" />
    <path d="M -1.40688 -9.34276 L -3.19909 -7.17663" />
    <path d="M -3.48207 -7.31235 L -4.36419 -5.76845 L -5.3298 -4.60139 L -4.93509 -4.41209" />
    <path d="M -5.3298 -4.07844 L -5.3298 -4.60139" />
    <path d="M -5.3298 -4.07844 L -8.35123 1.2097 L 0.10996 5.26768 L 3.13139 -0.02046 L 3.13139 -0.54341 L 4.09699 -1.71047 L 4.97911 -3.25436 L 2.93028 -4.23698" />
    <path d="M -6.18334 4.51236 L -8.35123 1.2097" />
    <path d="M 0.06443 -11.01252 L 0.00015 -11.04335" />
    <path d="M 4.71242 4.30932 L 5.22991 3.40361" />
    <path d="M 2.27784 8.57034 L 4.71242 4.30932 L 3.62848 2.65799" />
    <path d="M 2.27784 8.57034 L 0.10996 5.26768" />
    <path d="M 5.15397 -2.98797 L 4.97911 -3.25436" />
    <path d="M 5.15397 -2.98797 L 8.46134 -6.98537" />
    <path d="M -6.18334 4.51236 L -1.95275 6.54135 L 2.27784 8.57034" />
    <path d="M 3.42396 -4.00021 A 3 2.28406 180 0 0 4.56577 -5.79338" />
    <path d="M -3.03669 4.89002 L -1.95275 6.54135" />
    <path d="M -1.43423 -6.3302 L -3.48207 -7.31235" />
    <path d="M -1.43423 -6.25216 L -1.43318 -6.17248 L -1.43003 -6.09317 L -1.42477 -6.01431 L -1.41743 -5.93593 L -1.40799 -5.85809 L -1.39647 -5.78086 L -1.38288 -5.70428 L -1.36722 -5.6284 L -1.3495 -5.55329 L -1.32974 -5.47899 L -1.30796 -5.40556 L -1.28416 -5.33304 L -1.25836 -5.26149 L -1.23058 -5.19095" />
    <path d="M 0.01984 -3.89048 L 0.20986 -3.81404 L 0.40698 -3.75279 L 0.61018 -3.70706 L 0.81838 -3.67707 L 1.0305 -3.663 L 1.24542 -3.6649 L 1.46202 -3.68278 L 1.67916 -3.71654 L 1.89571 -3.766 L 2.11053 -3.83091 L 2.3225 -3.91092 L 2.5305 -4.00561 L 2.73345 -4.11449 L 2.93028 -4.23698" />
    <path d="M -4.36419 -5.76845 L -3.49855 -5.35328" />
    <path d="M 0.23502 -3.56267 L 4.09699 -1.71047" />
    <path d="M -5.3298 -4.07844 L -5.22518 -4.02827" />
    <path d="M -4.19402 0.62391 A 3 2.75596 146.71888 0 0 1.22529 -0.93462 L 3.13139 -0.02046" />
    <path d="M -0.97258 -10.25245 A 3 2.28406 360 0 1 4.56577 -9.03506 L 4.56577 -5.79338" />
    <path d="M 4.56577 -9.03506 A 3 2.28406 360 0 1 -1.43423 -9.03506 L -1.43423 -6.25216" />
    <path d="M -1.43423 -9.03506 A 3 2.28406 360 0 1 -0.97258 -10.25245" />
    <path d="M 1.08256 -1.52603 L 3.13139 -0.54341" />
    <path d="M 1.08256 -1.52603 L 1.08818 -1.61808 L 1.08941 -1.70996 L 1.08625 -1.80152 L 1.07871 -1.89264 L 1.06679 -1.98319 L 1.05051 -2.07304 L 1.0299 -2.16206 L 1.00498 -2.25013 L 0.97579 -2.33711 L 0.94237 -2.42289 L 0.90477 -2.50734 L 0.86304 -2.59035 L 0.81724 -2.67179 L 0.76745 -2.75154" />
    <path d="M 1.08256 -1.52603 L 1.09387 -1.48438 L 1.10502 -1.44263 L 1.116 -1.40078 L 1.12681 -1.35883 L 1.13744 -1.31678 L 1.14791 -1.27464 L 1.1582 -1.23241 L 1.16831 -1.1901 L 1.17825 -1.14771 L 1.18801 -1.10524 L 1.1976 -1.06269 L 1.20701 -1.02007 L 1.21624 -0.97738 L 1.22529 -0.93462" />
    <path d="M -5.30836 -3.89106 A 3 2.75596 326.71888 0 1 -0.26204 -4.31991 L 0.76745 -2.75154" />
    <path d="M -0.26204 -4.31991 A 3 2.75596 326.71888 0 1 -5.27797 -1.02742 L -4.19402 0.62391" />
    <path d="M -5.27797 -1.02742 A 3 2.75596 326.71888 0 1 -5.30836 -3.89106" />
    <path d="M 6.56577 1.78904 L 6.56577 3.93166" />
    <path d="M -3.04648 6.0168 L -2.61417 6.6754" />
</svg>