<svg version="1.1" xmlns="http://www.w3.org/2000/svg" viewBox="-7.827494144225127 -9.82626631426647 17.21555400315622 18.2613022301797" fill="none" stroke="black" stroke-width="0.6%" vector-effect="non-scaling-stroke">
    <path d="M -6.44068 1.96198 L -6.11311 2.09183" />
    <path d="M -6.31691 1.74158 L -6.44068 1.96198" />
    <path d="M 0.42813 4.68475 L 0.45608 4.86219 L 0.47484 5.02872 L 0.4844 5.18415 L 0.48474 5.32829 L 0.47586 5.46098 L 0.45777 5.58205 L 0.4305 5.69136 L 0.39407 5.78878 L 0.34852 5.8742 L 0.29393 5.94751 L 0.23033 6.00863 L 0.15783 6.05749 L 0.07649 6.09402 L -0.01359 6.11819 L 3.30845 7.43503 L 5.66591 3.23719 L 8.38806 0.67577 L 8.38806 -3.28343 L 5.52785 -4.4172" />
    <path d="M 0.72875 6.41245 A 5 4.49148 303.99432 0 1 -1.32368 5.72015" />
    <path d="M 2.45397 -1.91817 A 5 4.49148 303.99432 0 1 -4.96663 3.26348 A 5 4.49148 303.99432 0 1 -4.62792 -4.7254 A 5 3.67739 350.38289 0 1 5.26967 -5.9409 L 5.68951 -3.46318" />
    <path d="M 2.45397 -1.91817 L 2.57525 -1.75105 L 2.69612 -1.58269 L 2.81653 -1.41315 L 2.93643 -1.24248 L 3.05579 -1.07077 L 3.17456 -0.89806 L 3.29268 -0.72443 L 3.41013 -0.54994 L 3.52685 -0.37465 L 3.6428 -0.19863 L 3.75794 -0.02195 L 3.87223 0.15532 L 3.98561 0.33313 L 4.09806 0.51141 L 4.16426 0.47631 L 4.2295 0.44053 L 4.29375 0.40408 L 4.357 0.36696 L 4.41923 0.32919 L 4.48042 0.29078 L 4.54054 0.25175 L 4.5996 0.21209 L 4.65755 0.17183 L 4.7144 0.13098 L 4.77012 0.08955 L 4.82469 0.04754 L 4.87811 0.00498 L 4.93035 -0.03813 L 4.94078 -0.05486 L 4.95115 -0.07162 L 4.96146 -0.08841 L 4.97171 -0.10522 L 4.9819 -0.12206 L 4.99203 -0.13893 L 5.00209 -0.15583 L 5.0121 -0.17275 L 5.02204 -0.1897 L 5.03192 -0.20668 L 5.04174 -0.22368 L 5.05149 -0.24071 L 5.06118 -0.25776 L 5.07081 -0.27484 L 6.66228 -3.10872 L 5.68385 -3.49657" />
    <path d="M 3.21487 1.58429 L 3.29105 1.51137 L 3.36533 1.43774 L 3.43769 1.36344 L 3.5081 1.2885 L 3.57651 1.21296 L 3.64291 1.13684 L 3.70726 1.06019 L 3.76953 0.98303 L 3.82969 0.9054 L 3.88773 0.82733 L 3.94361 0.74887 L 3.9973 0.67003 L 4.0488 0.59087 L 4.09806 0.51141" />
    <path d="M 2.93225 1.83484 L 2.95317 1.81728 L 2.97397 1.79966 L 2.99467 1.78199 L 3.01526 1.76427 L 3.03573 1.74649 L 3.05609 1.72867 L 3.07634 1.71079 L 3.09648 1.69287 L 3.1165 1.67489 L 3.1364 1.65687 L 3.15619 1.6388 L 3.17587 1.62068 L 3.19543 1.60251 L 3.21487 1.58429 L 4.93651 -0.03569 L 5.07081 -0.27484 L 5.18778 -0.4942 L 5.29429 -0.71706 L 5.39008 -0.94288 L 5.47493 -1.17111 L 5.54861 -1.40121 L 5.61097 -1.6326 L 5.66183 -1.86473 L 5.70109 -2.09704 L 5.72865 -2.32896 L 5.74443 -2.55994 L 5.7484 -2.7894 L 5.74055 -3.01679 L 5.72091 -3.24157 L 5.68951 -3.46318" />
    <path d="M 2.93225 1.83484 L 2.9249 1.95438 L 2.91575 2.07297 L 2.9048 2.19055 L 2.89206 2.30707 L 2.87754 2.42248 L 2.86123 2.53674 L 2.84315 2.64979 L 2.8233 2.76158 L 2.8017 2.87207 L 2.77834 2.98121 L 2.75325 3.08895 L 2.72644 3.19525 L 2.69791 3.30005 L 2.66767 3.40332" />
    <path d="M 0.42813 4.68475 L 0.60269 4.6283 L 0.77591 4.56604 L 0.94755 4.49805 L 1.1174 4.42442 L 1.2852 4.34524 L 1.45075 4.26064 L 1.61381 4.17071 L 1.77416 4.07558 L 1.9316 3.97539 L 2.0859 3.87025 L 2.23686 3.76033 L 2.38427 3.64576 L 2.52794 3.5267 L 2.66767 3.40332" />
    <path d="M -5.07961 4.11004 L -6.44068 1.96198" />
    <path d="M -5.07961 4.11004 L -1.75997 5.42593" />
    <path d="M 3.30845 7.43503 L 1.94738 5.28697 L 2.94375 3.51275 L 2.94375 1.8394 L 3.21487 1.58429" />
    <path d="M 0.42813 4.68475 L 1.94738 5.28697" />
    <path d="M 5.26967 -5.9409 A 5 3.67739 350.38289 0 1 2.45397 -1.91817 A 5 3.67739 350.38289 0 1 -4.58979 -4.27026 L -4.55699 -4.07671" />
    <path d="M 2.45397 -1.91817 L 1.86637 -1.47988 L 1.24792 -1.12605 L 0.60984 -0.86309 L -0.0363 -0.69577 L -0.6788 -0.62713 L -1.30601 -0.6584 L -1.90656 -0.78903 L -2.46955 -1.01664 L -2.98479 -1.3371 L -3.44293 -1.74461 L -3.83568 -2.23178 L -4.1559 -2.78978 L -4.3978 -3.4085 L -4.55699 -4.07671" />
    <path d="M 4.93651 -0.03569 L 4.93035 -0.03813" />
    <path d="M 2.93225 1.83484 L 2.94375 1.8394" />
    <path d="M 2.94375 3.51275 L 2.66767 3.40332" />
    <path d="M 7.23754 -2.20085 L 8.38806 -3.28343" />
    <path d="M 7.23754 -2.20085 L 6.66228 -3.10872" />
    <path d="M 1.0927 -4.7117 L 1.29004 -4.56852 L 1.47388 -4.41425 L 1.64362 -4.24941 L 1.79867 -4.07457 L 1.93853 -3.89029 L 2.06273 -3.6972 L 2.17084 -3.49595 L 2.26251 -3.28722 L 2.33743 -3.07169 L 2.39535 -2.8501 L 2.43607 -2.62318 L 2.45945 -2.3917 L 2.46543 -2.15643 L 2.45397 -1.91817 L -4.62792 -4.7254 A 5 4.49148 303.99432 0 1 0.62448 -5.02745 L 1.0927 -4.7117 Z" />
    <path d="M -4.58979 -4.27026 A 5 3.67739 350.38289 0 1 -4.62792 -4.7254" />
    <path d="M 0.62448 -5.02745 A 5 4.49148 303.99432 0 1 2.45397 -1.91817" />
    <path d="M -4.96663 3.26348 L -1.32368 5.72015" />
</svg>