<svg version="1.1" xmlns="http://www.w3.org/2000/svg" viewBox="-9.623622475051445 -13.037126382178647 19.24724495010289 22.78290656910009" fill="none" stroke="black" stroke-width="0.6%" vector-effect="non-scaling-stroke">
    <path d="M 5.19313 2.7585 L 5.83886 1.93958 L 8.62362 -1.59208 L 8.62362 -8.26697 L 0.00016 -12.03713 L -3.20145 -7.97681" />
    <path d="M 4.60323 3.85287 L 5.19313 2.7585" />
    <path d="M 2.05922 8.5724 L 4.60323 3.85287 L 3.77947 2.45843" />
    <path d="M 2.05922 8.5724 L -0.00016 5.08632 L 3.0541 -0.57983 L 3.0541 -1.20365 L 4.11692 -2.55152 L 5.08784 -4.35275 L 0.96868 -6.15364" />
    <path d="M 5.28031 -4.02695 L 5.08784 -4.35275" />
    <path d="M 5.28031 -4.02695 L 8.62362 -8.26697" />
    <path d="M 2.19155 -5.61901 A 1.5 1.11693 180 0 0 3.02713 -6.62039" />
    <path d="M 0.02713 -6.62039 A 1.5 1.11693 180 0 0 0.02901 -6.56446" />
    <path d="M 5.83886 5.94451 A 5 3.7231 180 0 0 6.52713 4.05944" />
    <path d="M 5.83886 5.94451 L 5.79468 5.72941 L 5.74924 5.51381 L 5.70255 5.29777 L 5.65463 5.08138 L 5.60548 4.86468 L 5.55513 4.64774 L 5.50358 4.43062 L 5.45086 4.2134 L 5.39698 3.99613 L 5.34196 3.77888 L 5.2858 3.56172 L 5.22854 3.3447 L 5.17017 3.12789 L 5.11074 2.91136" />
    <path d="M -6.56423 4.80225 L -8.62362 1.31616 L -0.00016 5.08632" />
    <path d="M -6.56423 4.80225 L 2.05922 8.5724" />
    <path d="M -5.56935 -4.34999 L -8.62362 1.31616" />
    <path d="M -5.56935 -4.34999 L -3.82139 -3.58579" />
    <path d="M -3.05937 -0.75536 A 1.5 1.37155 149.4277 0 0 -0.38115 -2.08172 L 3.0541 -0.57983" />
    <path d="M -3.53561 -8.12291 L -4.50654 -6.32168 L -5.56935 -4.97381 L -3.39706 -4.02409" />
    <path d="M 0.58356 -6.32202 L -3.53561 -8.12291" />
    <path d="M 0.58356 -6.32202 L 0.60866 -6.3059 L 0.63418 -6.29039 L 0.66011 -6.27549 L 0.68643 -6.26121 L 0.71314 -6.24755 L 0.74022 -6.23452 L 0.76765 -6.22213 L 0.79544 -6.21038 L 0.82355 -6.19928 L 0.85199 -6.18883 L 0.88073 -6.17904 L 0.90977 -6.16991 L 0.93909 -6.16144 L 0.96868 -6.15364" />
    <path d="M -4.50654 -6.32168 L 4.11692 -2.55152" />
    <path d="M 0.23361 -9.85587 A 1.5 1.11693 360 0 1 3.02713 -9.29035 L 3.02713 -6.62039" />
    <path d="M 3.02713 -9.29035 A 1.5 1.11693 360 1 1 0.02713 -9.29035 L 0.02713 -6.62039" />
    <path d="M 0.02713 -9.29035 A 1.5 1.11693 360 0 1 0.23361 -9.85587" />
    <path d="M -5.56935 -4.34999 L -5.56935 -4.97381" />
    <path d="M -2.77781 6.60256 A 5 4.57182 149.4277 0 0 5.83886 5.94451" />
    <path d="M -0.54527 -2.39781 L -0.53288 -2.37664 L -0.52059 -2.35524 L -0.50839 -2.33362 L -0.4963 -2.31177 L -0.4843 -2.28971 L -0.47241 -2.26743 L -0.46062 -2.24493 L -0.44894 -2.22222 L -0.43736 -2.19931 L -0.4259 -2.17619 L -0.41454 -2.15287 L -0.4033 -2.12935 L -0.39217 -2.10563 L -0.38115 -2.08172" />
    <path d="M -3.88516 -3.47825 A 1.5 1.37155 329.4277 0 1 -1.30016 -3.67566 L -0.54527 -2.39781" />
    <path d="M -1.30016 -3.67566 A 1.5 1.37155 329.4277 1 1 -3.88313 -2.14979 L -3.05937 -0.75536" />
    <path d="M -3.88313 -2.14979 A 1.5 1.37155 329.4277 0 1 -3.88516 -3.47825" />
    <path d="M -0.84751 -2.90943 L 3.0541 -1.20365" />
    <path d="M 6.52713 1.06671 L 6.52713 4.05944" />
    <path d="M -2.89321 6.40721 L -2.77781 6.60256" />
</svg>