<svg version="1.1" xmlns="http://www.w3.org/2000/svg" viewBox="-13.367468000117404 -17.521633660153498 26.517261533538612 32.47074173903381" fill="none" stroke="black" stroke-width="0.6%" vector-effect="non-scaling-stroke">
    <path d="M 10.21358 9.03615 A 10 6.15431 180 0 0 12.14979 5.39649" />
    <path d="M -7.66318 -11.55201 A 10 6.15431 360 0 1 12.14979 -10.36733 A 10 6.15431 360 0 1 6.93453 -4.96322 A 10 8.20738 335.09956 0 1 -11.73149 -0.75702 A 10 8.20738 335.09956 0 1 -7.66318 -11.55201 L 6.93453 -4.96322 L 5.58891 -4.13682 L 4.16826 -3.47889 L 2.70357 -3.00378 L 1.22681 -2.72186 L -0.22983 -2.63928 L -1.63454 -2.75783 L -2.9567 -3.07494 L -4.16746 -3.58369 L -5.2404 -4.27297 L -6.15212 -5.12776 L -6.88272 -6.12939 L -7.41627 -7.25602 L -7.74113 -8.48308 L -7.85021 -9.78378" />
    <path d="M 10.21358 9.03615 L 10.02416 8.02717 L 9.827 7.01561 L 9.62228 6.00245 L 9.41022 4.9887 L 9.19102 3.97535 L 8.96488 2.96339 L 8.73205 1.95383 L 8.49274 0.94766 L 8.2472 -0.05414 L 7.99565 -1.05058 L 7.73836 -2.04068 L 7.47557 -3.02346 L 7.20754 -3.99796 L 6.93453 -4.96322 A 10 6.15431 360 0 1 -7.85021 -10.36733 L -7.85021 -9.78378" />
    <path d="M -6.92062 9.60692 A 10 8.20738 155.09956 0 0 10.21358 9.03615" />
    <path d="M 6.82786 -8.27623 L 6.92549 -8.04983 L 7.00952 -7.82059 L 7.07984 -7.5888 L 7.13635 -7.3548 L 7.17897 -7.11889 L 7.20766 -6.8814 L 7.22236 -6.64264 L 7.22306 -6.40294 L 7.20976 -6.16263 L 7.18248 -5.92202 L 7.14125 -5.68146 L 7.08613 -5.44125 L 7.01719 -5.20173 L 6.93453 -4.96322" />
    <path d="M -7.66318 -11.55201 A 10 8.20738 335.09956 0 1 6.40932 -9.17787 L 6.82786 -8.27623" />
    <path d="M 6.40932 -9.17787 A 10 8.20738 335.09956 0 1 6.93453 -4.96322" />
    <path d="M -7.85021 -10.36733 A 10 6.15431 360 0 1 -7.66318 -11.55201" />
    <path d="M 12.14979 -10.36733 L 12.14979 5.39649" />
    <path d="M -11.73149 -0.75702 L -6.92062 9.60692" />
</svg>