<svg version="1.1" xmlns="http://www.w3.org/2000/svg" viewBox="-9.59695323845831 -14.220058792061824 19.193906476916624 22.513356333281102" fill="none" stroke="black" stroke-width="0.6%" vector-effect="non-scaling-stroke">
    <path d="M -6.04292 3.32177 L -5.88701 3.386" />
    <path d="M -6.25476 2.31575 L 0.64061 5.1564 L 0.67987 5.24487 L 0.71705 5.33154 L 0.75213 5.41637 L 0.78509 5.49935 L 0.81594 5.58045 L 0.84466 5.65964 L 0.87125 5.7369 L 0.89569 5.81222 L 0.91798 5.88556 L 0.93811 5.9569 L 0.95608 6.02623 L 0.97188 6.09353 L 0.9855 6.15877 L 0.99695 6.22194 L 2.55404 6.8634 L 0 3.60305 L 3.48888 -3.30976 L 3.48888 -3.7178 L 3.98986 -4.3024 L 4.42372 -5.16205 L -4.17323 -8.70368 L -4.60709 -7.84403 L 3.98986 -4.3024" />
    <path d="M -8.59695 0.06141 L 0 3.60305" />
    <path d="M -6.04292 3.32177 L -8.59695 0.06141" />
    <path d="M -0.11199 6.98281 A 5 4.64891 111.79499 0 0 6.04292 4.11103 L 5.96459 3.98634 L 5.885 3.86115 L 5.80416 3.73551 L 5.7221 3.60944 L 5.63884 3.483 L 5.55441 3.3562 L 5.46884 3.22911 L 5.38215 3.10175 L 5.29436 2.97415 L 5.20551 2.84637 L 5.11562 2.71844 L 5.02471 2.59039 L 4.93282 2.46226 L 4.83996 2.3341" />
    <path d="M 0.64061 5.1564 A 5 4.64891 291.79499 0 1 -3.52996 5.61607 A 5 4.64891 291.79499 0 1 -6.25476 2.31575" />
    <path d="M 2.55404 6.8634 L 4.29575 3.4124 L 5.35856 1.30656 L 5.50004 1.14147 L 8.59695 -2.47232 L 8.59695 -9.67842 L 0 -13.22006 L -3.94942 -8.61148" />
    <path d="M 4.56834 -4.97743 L 4.42372 -5.16205" />
    <path d="M 4.56834 -4.97743 L 8.59695 -9.67842" />
    <path d="M -5.10807 -6.8514 L -8.59695 0.06141" />
    <path d="M -5.10807 -6.8514 L 3.48888 -3.30976" />
    <path d="M -4.60709 -7.84403 L -5.10807 -7.25944 L 3.48888 -3.7178" />
    <path d="M -5.10807 -6.8514 L -5.10807 -7.25944" />
    <path d="M 6.04292 4.11103 A 5 4.03496 169.63995 0 0 6.66292 1.44105" />
    <path d="M -3.52996 5.61607 L -0.11199 6.98281" />
    <path d="M 6.41333 0.07575 L 6.66292 1.44105" />
</svg>